<svg width="24" height="24" viewBox="0 0 24 24" fill="none" xmlns="http://www.w3.org/2000/svg">
<path d="M12 24C18.6274 24 24 18.6274 24 12C24 5.37258 18.6274 0 12 0C5.37258 0 0 5.37258 0 12C0 18.6274 5.37258 24 12 24Z" fill="#FFC72C"/>
<path d="M15.2103 4.7731H6.31104V19.2269H17.6889V7.25672H15.2103V4.7731Z" fill="white"/>
<path d="M16.4445 12.0099H7.55029V12.5524H16.4445V12.0099Z" fill="#ACB3BA"/>
<path d="M16.4445 13.6972H7.55029V14.2397H16.4445V13.6972Z" fill="#ACB3BA"/>
<path d="M16.4445 15.3844H7.55029V15.9269H16.4445V15.3844Z" fill="#ACB3BA"/>
<path d="M12.5474 17.0718H7.55029V17.6143H12.5474V17.0718Z" fill="#ACB3BA"/>
<path d="M14.8767 9.12827H14.0654V10.4821H14.8767V9.12827Z" fill="#FF7058"/>
<path d="M13.2295 8.5061H12.4182V10.482H13.2295V8.5061Z" fill="#FF7058"/>
<path d="M11.582 7.71967H10.7708V10.482H11.582V7.71967Z" fill="#FF7058"/>
<path d="M9.93946 6.72421H9.12817V10.482H9.93946V6.72421Z" fill="#FF7058"/>
<path d="M15.2102 4.7731V7.25673H17.6888L15.2102 4.7731Z" fill="#E6E9EE"/>
<path d="M15.2601 14.4736L14.6777 17.5395L17.7437 16.9572L17.1414 16.355L17.5844 15.907L17.2061 15.5288L16.7632 15.9767L16.2406 15.4591L16.6885 15.0111L16.3103 14.6329L15.8623 15.0758L15.2601 14.4736Z" fill="#E6E9EE"/>
<path d="M14.8171 16.8129L14.6777 17.5395L15.4044 17.4052L14.8171 16.8129Z" fill="#324A5E"/>
<path d="M20.4364 12.657L21.3124 13.5329L18.0523 16.793C17.8084 17.0369 17.4202 17.0369 17.1763 16.793C16.9324 16.5491 16.9324 16.1609 17.1763 15.917L20.4364 12.657Z" fill="#2C9984"/>
<path d="M19.5653 11.781L20.4413 12.657L17.1812 15.9171C16.9373 16.161 16.5491 16.161 16.3052 15.9171C16.0613 15.6732 16.0613 15.285 16.3052 15.0411L19.5653 11.781Z" fill="#4CDBC4"/>
<path d="M18.6893 10.9051L19.5653 11.781L16.3052 15.0361C16.0614 15.28 15.6731 15.28 15.4293 15.0361C15.1854 14.7923 15.1854 14.404 15.4293 14.1602L18.6893 10.9051Z" fill="#2C9984"/>
<path d="M21.7266 13.1119L19.1047 10.49L18.6894 10.9053L21.3114 13.5272L21.7266 13.1119Z" fill="#FFD05B"/>
<path d="M19.1074 10.4919L21.7304 13.1149L22.7656 12.0796C22.8304 12.0149 22.8304 11.9154 22.7656 11.8507L20.3716 9.45664C20.3069 9.39194 20.2074 9.39194 20.1427 9.45664L19.1074 10.4919Z" fill="#FF7058"/>
</svg>
