<svg width="24" height="24" viewBox="0 0 24 24" fill="none" xmlns="http://www.w3.org/2000/svg">
<g clip-path="url(#clip0)">
<path d="M12 23.9999C18.6274 23.9999 24 18.6274 24 11.9999C24 5.37252 18.6274 -6.10352e-05 12 -6.10352e-05C5.37258 -6.10352e-05 0 5.37252 0 11.9999C0 18.6274 5.37258 23.9999 12 23.9999Z" fill="#FF796C"/>
<path d="M8.52597 4.09186V6.63918H5.9834V19.9081H18.0167V4.09186H8.52597Z" fill="white"/>
<path d="M8.52598 4.09186L5.9834 6.63918H8.52598V4.09186Z" fill="#E6E9EE"/>
<path d="M12 16.0395C12 16.1678 11.9905 16.3009 11.9715 16.4244C11.8004 17.4985 10.9212 18.3397 9.83284 18.4537C9.74729 18.4632 9.66175 18.468 9.57145 18.468C8.2265 18.468 7.13818 17.3797 7.13818 16.0395C7.13818 14.9226 7.89383 13.9769 8.92511 13.6965C9.12947 13.6395 9.34808 13.611 9.57145 13.611C10.2178 13.611 10.8071 13.8628 11.2396 14.2763C11.7101 14.7135 12 15.3409 12 16.0395Z" fill="#FF7058"/>
<path d="M11.2395 14.2716L9.57138 16.0396L8.92505 13.6966C9.12941 13.6395 9.34802 13.611 9.57138 13.611C10.2177 13.6063 10.807 13.8582 11.2395 14.2716Z" fill="#FFD05B"/>
<path d="M12 16.0395C12 16.1679 11.9905 16.3009 11.9715 16.4245L9.57153 16.0395L11.2397 14.2764C11.7101 14.7136 12 15.3409 12 16.0395Z" fill="#E6E9EE"/>
<path d="M11.9715 16.4245C11.8004 17.4986 10.9212 18.3397 9.83292 18.4538L9.57153 16.0396L11.9715 16.4245Z" fill="#4CDBC4"/>
<path d="M13.4826 14.2526H12.7507V14.8989H13.4826V14.2526Z" fill="#FFD05B"/>
<path d="M13.4826 15.7117H12.7507V16.358H13.4826V15.7117Z" fill="#4CDBC4"/>
<path d="M13.4826 17.1754H12.7507V17.8217H13.4826V17.1754Z" fill="#FF7058"/>
<path d="M16.9379 14.2526H13.9961V14.8989H16.9379V14.2526Z" fill="#E6E9EE"/>
<path d="M16.9379 15.7115H13.9961V16.3579H16.9379V15.7115Z" fill="#E6E9EE"/>
<path d="M16.9379 17.1754H13.9961V17.8217H16.9379V17.1754Z" fill="#E6E9EE"/>
<path d="M15.9754 9.69071L15.3772 10.2889L17.0608 11.9725L17.6589 11.3743L15.9754 9.69071Z" fill="#2B3B4E"/>
<path d="M14.2764 11.8098C16.0559 11.8098 17.4986 10.3672 17.4986 8.58766C17.4986 6.8081 16.0559 5.36548 14.2764 5.36548C12.4968 5.36548 11.0542 6.8081 11.0542 8.58766C11.0542 10.3672 12.4968 11.8098 14.2764 11.8098Z" fill="#324A5E"/>
<path d="M14.2764 11.0256C15.6229 11.0256 16.7144 9.9341 16.7144 8.58762C16.7144 7.24114 15.6229 6.1496 14.2764 6.1496C12.9299 6.1496 11.8384 7.24114 11.8384 8.58762C11.8384 9.9341 12.9299 11.0256 14.2764 11.0256Z" fill="#E6E9EE"/>
<path d="M16.6859 12.1093L17.7933 11.002C17.8265 10.9687 17.8741 10.9687 17.9073 11.002L19.9556 13.0503C19.9889 13.0836 19.9889 13.1311 19.9556 13.1644L18.8483 14.2717C18.815 14.305 18.7675 14.305 18.7342 14.2717L16.6859 12.2234C16.6574 12.1901 16.6574 12.1378 16.6859 12.1093Z" fill="#FF7058"/>
<path d="M17.0824 12.6156L18.3425 13.8758L19.5624 12.6559L18.3022 11.3958L17.0824 12.6156Z" fill="#E6E9EE"/>
<path d="M7.89383 8.09335H7.13818V11.0256H7.89383V8.09335Z" fill="#54C0EB"/>
<path d="M9.06302 9.1199H8.30737V11.0256H9.06302V9.1199Z" fill="#54C0EB"/>
<path d="M10.2322 9.9516H9.47656V11.0257H10.2322V9.9516Z" fill="#54C0EB"/>
</g>
<defs>
<clipPath id="clip0">
<rect width="24" height="24" fill="white"/>
</clipPath>
</defs>
</svg>
