<svg width="200" height="200" viewBox="0 0 200 200" fill="none" xmlns="http://www.w3.org/2000/svg">
<g clip-path="url(#clip0)">
<path d="M80.7881 173.661C90.2281 183.629 113.404 179.977 123.444 173.661C156.044 153.161 213.156 119.033 215.744 69.5929C216.844 48.5809 198.312 37.5449 190.572 34.3089C171.988 26.5329 151.588 24.2009 131.448 23.3009C110.42 22.3609 87.8481 23.0929 68.9241 33.3529C61.7481 37.2369 54.9801 42.2329 50.3481 49.0329C45.6441 55.9449 42.9361 64.1769 42.2161 72.485C41.0601 85.885 44.6641 99.3209 50.1161 111.617C55.5681 123.913 62.8361 135.297 69.5081 146.977C73.8641 154.589 72.8521 165.265 80.7881 173.661Z" fill="#FFC72C"/>
<path opacity="0.7" d="M47.788 171.382C57.228 181.35 80.404 177.698 90.444 171.382C123.044 150.882 180.156 116.754 182.744 67.3136C183.844 46.3016 165.312 35.2656 157.572 32.0296C138.988 24.2536 118.588 21.9216 98.448 21.0216C77.42 20.0816 54.848 20.8136 35.924 31.0736C28.748 34.9576 21.98 39.9536 17.348 46.7536C12.644 53.6656 9.93596 61.8977 9.21596 70.2057C8.05996 83.6057 11.664 97.0416 17.116 109.338C22.568 121.634 29.836 133.018 36.508 144.698C40.864 152.31 39.852 162.986 47.788 171.382Z" fill="#FF0000"/>
<path d="M130.278 206.283L129.837 198.267L92.6017 200.721V208.457C92.6017 208.457 84.226 219.15 80.9221 290.318H147.946C147.946 290.318 155.298 227.342 130.278 206.283Z" fill="#407FFE"/>
<path d="M51.9017 190.787L62.1883 145.201L84.8153 156.59L73.9572 200.25C71.7308 209.265 64.0575 213.524 57.7415 209.233C52.7113 205.812 50.2408 198.02 51.9017 190.787Z" fill="#F26E5A"/>
<path d="M67.7664 120.85C69.8023 111.963 76.91 107.096 83.4642 110.101C89.8338 113.026 93.2687 122.289 91.1494 130.872L84.8096 156.574L62.1885 145.201L67.7664 120.85Z" fill="#FEFEF4"/>
<path d="M69.3676 187.367L43.526 121.585C43.526 121.585 44.1153 109.701 29.4116 108.99L29.4176 109.006C29.2152 108.99 29.0187 108.966 28.8163 108.966H23.8992C22.9884 108.966 22.155 109.829 22.03 111.044C21.8871 112.451 22.6194 113.657 23.6016 113.825L28.5604 114.768L21.8157 117.182L20.5537 117.805L11.3683 109.661C10.6361 108.958 9.61223 109.286 9.18957 110.349C8.85621 111.188 9.00503 112.219 9.54675 112.826C10.1123 113.458 11.0231 114.512 12.0232 115.663L9.99322 114.033C9.21934 113.41 8.21925 113.841 7.86207 114.952C7.58228 115.823 7.79064 116.83 8.36807 117.382C8.86216 117.853 9.49912 118.452 10.1778 119.092L9.47531 118.724C8.70143 118.317 7.79064 118.612 7.3144 119.531C6.67149 120.778 7.05843 122.472 8.07638 123.04L18.113 128.682C19.8453 129.657 21.5002 130.265 23.5421 129.617L32.4893 126.788L52.5089 202.024L69.3676 187.367Z" fill="#F26E5A"/>
<path d="M58.7655 160.37L63.5457 172.542" stroke="#DB5749" stroke-width="1.5" stroke-miterlimit="10"/>
<path d="M87.8873 109.381L78.2792 110.348C78.2792 110.348 64.3732 135.675 92.6079 200.729L129.843 198.275L132.647 128.186L128.052 108.286H111.372L87.8873 109.381Z" fill="#FEFEF4"/>
<path d="M76.9813 152.642C76.9813 152.642 74.2132 144.818 75.9931 127.491" stroke="#FCE7E4" stroke-width="1.5516" stroke-miterlimit="10"/>
<path d="M163.412 181.628L147.946 138.76L126.92 154.751L142.719 195.598C145.964 204.038 154.042 206.635 159.781 201.073C164.358 196.645 165.888 188.429 163.412 181.628Z" fill="#F26E5A"/>
<path d="M139.6 115.887C136.552 107.535 128.968 104.219 122.843 108.566C116.89 112.786 114.58 122.664 117.669 130.696L126.92 154.76L147.946 138.768L139.6 115.887Z" fill="#FEFEF4"/>
<path d="M126.926 154.752L119.283 134.884" stroke="#FCE7E4" stroke-width="1.5516" stroke-miterlimit="10"/>
<path d="M195.688 108.286C195.218 107.367 194.301 107.08 193.528 107.479L189.039 109.829L193.26 105.034C193.956 104.242 194.153 102.836 193.629 101.837C193.022 100.686 191.861 100.51 191.093 101.349L187.17 105.593L190.515 99.719C191.069 98.744 191.039 97.3135 190.361 96.4903C189.587 95.5393 188.426 95.7071 187.801 96.738L181.193 105.945L174.442 103.531L179.401 102.588C180.383 102.42 181.122 101.214 180.973 99.8069C180.848 98.5922 180.014 97.729 179.104 97.729H174.186C171.281 97.729 168.448 99.0877 166.299 101.677C166.263 101.717 166.227 101.741 166.192 101.781C163.174 104.978 164.275 111.523 164.275 111.523L145.755 181.916L164.108 192.849L174.687 117.253L181.443 117.269C181.86 117.325 182.282 117.317 182.705 117.269H182.759H182.753C183.479 117.181 184.199 116.95 184.884 116.566L194.921 111.795C195.944 111.227 196.325 109.533 195.688 108.286Z" fill="#F26E5A"/>
<path d="M152.953 152.642L148.952 171.391" stroke="#DB5749" stroke-width="1.5" stroke-miterlimit="10"/>
<path d="M87.137 51.3119C85.9821 52.3748 78.2195 55.0841 78.0647 56.9782C78.0647 56.9782 80.6185 70.3806 78.0052 72.8821C70.9331 79.6433 68.671 92.9019 68.671 92.9019C68.671 92.9019 87.3275 111.659 136.915 91.9668C136.915 91.9668 137.511 83.9909 128.492 78.2047C125.92 76.5504 123.628 74.0649 122.182 70.6763C121.063 68.055 120.89 66.9441 120.592 64.5945C119.759 58.0171 106.252 33.7137 87.137 51.3119Z" fill="black"/>
<path d="M87.8693 71.4037C88.0955 75.7992 85.625 79.6194 82.3509 79.923C79.0768 80.2267 76.2313 76.9101 76.0051 72.5145C75.7789 68.119 78.2493 64.2988 81.5234 63.9951C84.8035 63.6835 87.643 67.0001 87.8693 71.4037Z" fill="#DB5749"/>
<path d="M90.5601 90.9597L91.3816 108.326C91.6614 114.424 93.5187 118.58 97.9893 118.164C101.805 117.805 106.341 113.705 106.55 108.582L104.276 81.3374L90.5601 90.9597Z" fill="#F26E5A"/>
<path d="M87.8871 109.381L111.365 108.286C111.365 108.286 110.794 123.782 96.8403 122.336C87.137 121.321 87.8871 109.381 87.8871 109.381Z" fill="#F26E5A"/>
<path d="M91.2326 105.266L106.24 85.5657L90.4468 89.178L91.2326 105.266Z" fill="#DB5749"/>
<path d="M94.4949 93.7651C86.8513 93.797 80.5413 85.7172 80.315 77.3417L79.8626 57.5776C79.5769 47.0762 85.5477 38.1652 93.3519 37.438C101.347 36.6947 109.675 44.6547 110.228 55.3798L110.461 71.2838C110.645 83.5834 103.633 92.9099 94.4949 93.7651Z" fill="#F26E5A"/>
<path d="M88.3276 70.3809L87.8871 75.2879L89.7742 75.3838" stroke="black" stroke-width="1.2385" stroke-miterlimit="10" stroke-linecap="round" stroke-linejoin="round"/>
<path d="M95.8759 58.401C95.8759 58.401 91.6553 57.9375 91.6136 60.2392C91.6136 60.2392 91.6196 61.7976 95.2985 62.1093C98.9834 62.4209 99.9418 62.0533 100.275 60.5908C100.614 59.1283 97.8582 58.417 95.8759 58.401Z" fill="black"/>
<path d="M83.6368 61.766C83.6368 61.766 86.8335 61.4223 87.1371 63.4922C87.1371 63.4922 87.3157 64.8988 84.5179 65.1146C81.72 65.3304 80.8509 64.8668 80.7973 63.6761C80.7318 62.2615 82.1129 61.75 83.6368 61.766Z" fill="black"/>
<path d="M85.4939 68.5112C85.5177 69.5102 84.9343 70.3494 84.1902 70.3813C83.4461 70.4133 82.821 69.6301 82.7972 68.6311C82.7734 67.6321 83.3568 66.793 84.1009 66.761C84.845 66.721 85.4701 67.5042 85.4939 68.5112Z" fill="black"/>
<path d="M96.8342 68.0073C96.858 69.0063 96.2746 69.8454 95.5305 69.8774C94.7864 69.9094 94.1614 69.1261 94.1375 68.1272C94.1137 67.1282 94.6971 66.289 95.4412 66.257C96.1913 66.2251 96.8104 67.0083 96.8342 68.0073Z" fill="black"/>
<path d="M92.8877 78.7966C92.8877 78.7966 90.8934 77.5738 88.4766 80.371" stroke="black" stroke-width="1.2385" stroke-miterlimit="10" stroke-linecap="round" stroke-linejoin="round"/>
<path d="M98.0845 34.0335C96.1795 33.8976 94.2567 34.1773 92.4173 34.8406C87.8395 36.479 79.6245 41.0264 78.2136 52.8305C77.7433 55.9393 78.0707 56.9863 78.0707 56.9863C78.0707 56.9863 93.4174 57.7934 102.496 52.0393C103.799 59.4638 105.008 64.0591 110.472 71.2838L115.324 61.5017L120.783 68.0711C120.807 68.3188 120.801 35.6558 98.0845 34.0335Z" fill="black"/>
<path d="M118.426 71.4837C118.652 75.8793 116.181 79.6994 112.907 80.0031C109.633 80.3068 106.788 76.9902 106.561 72.5946C106.335 68.1991 108.806 64.3789 112.08 64.0752C115.36 63.7635 118.199 67.0802 118.426 71.4837Z" fill="#F26E5A"/>
<path d="M110.222 74.3204C110.222 74.3204 109.925 68.5502 114.08 69.0697" stroke="black" stroke-width="1.2385" stroke-miterlimit="10" stroke-linecap="round" stroke-linejoin="round"/>
</g>
<defs>
<clipPath id="clip0">
<rect width="200" height="200" fill="white"/>
</clipPath>
</defs>
</svg>
