<svg width="12" height="12" viewBox="0 0 12 12" fill="none" xmlns="http://www.w3.org/2000/svg">
<path d="M9.33068 0.627878C8.98126 0.510628 8.61376 0.458711 8.24568 0.458711C7.43485 0.452878 6.64793 0.721211 5.99985 1.21646C5.94735 1.17621 5.88318 1.14063 5.82485 1.10621C5.76651 1.07063 5.66151 0.983711 5.57401 0.937045L5.35235 0.837878C5.23568 0.773711 5.11376 0.727045 4.98485 0.685628C4.97318 0.674545 4.95568 0.662295 4.93235 0.651211H4.89793C4.55318 0.533961 4.19735 0.469795 3.82985 0.458711H3.76568C3.60235 0.458711 3.4396 0.469795 3.27568 0.493711H3.20568C3.03068 0.516461 2.85626 0.557295 2.6871 0.615628C0.51068 1.32788 -0.265153 3.69038 0.394014 5.75538C0.767347 6.81063 1.36876 7.76788 2.15043 8.55479C3.28735 9.65146 4.53043 10.6198 5.86568 11.4481L6.01735 11.542L6.16318 11.454C7.49376 10.6198 8.72985 9.65146 9.85627 8.56063C10.6432 7.77371 11.244 6.81063 11.6115 5.75538C12.2596 3.69038 11.4838 1.32788 9.33068 0.627878Z" fill="#EB5757"/>
</svg>
