<svg width="24" height="24" viewBox="0 0 24 24" fill="none" xmlns="http://www.w3.org/2000/svg">
<path fill-rule="evenodd" clip-rule="evenodd" d="M19 13H5C4.448 13 4 12.553 4 12C4 11.447 4.448 11 5 11H19C19.553 11 20 11.447 20 12C20 12.553 19.553 13 19 13Z" fill="#2D9CDB"/>
<mask id="mask0" mask-type="alpha" maskUnits="userSpaceOnUse" x="4" y="11" width="16" height="2">
<path fill-rule="evenodd" clip-rule="evenodd" d="M19 13H5C4.448 13 4 12.553 4 12C4 11.447 4.448 11 5 11H19C19.553 11 20 11.447 20 12C20 12.553 19.553 13 19 13Z" fill="white"/>
</mask>
<g mask="url(#mask0)">
<rect width="24" height="24" fill="#2D9CDB"/>
</g>
<circle cx="12" cy="12" r="11.5" stroke="#2D9CDB"/>
</svg>
