<svg width="24" height="24" viewBox="0 0 24 24" fill="none" xmlns="http://www.w3.org/2000/svg">
<path d="M12 24C18.6274 24 24 18.6274 24 12C24 5.37258 18.6274 0 12 0C5.37258 0 0 5.37258 0 12C0 18.6274 5.37258 24 12 24Z" fill="#6FCF97"/>
<path d="M1.47803 17.7695C3.51684 21.4811 7.46615 23.9999 12 23.9999C16.5339 23.9999 20.4832 21.4811 22.522 17.7695H1.47803Z" fill="#6FCF97"/>
<path d="M19.0147 15.1841H4.98538C4.91885 15.1841 4.86182 15.1271 4.86182 15.0605V5.22293C4.86182 5.15639 4.91885 5.09937 4.98538 5.09937H19.0147C19.0812 5.09937 19.1383 5.15639 19.1383 5.22293V15.0653C19.1383 15.1318 19.0812 15.1841 19.0147 15.1841Z" fill="#E6E9EE"/>
<path d="M18.3635 6.09738H5.64111V14.1861H18.3635V6.09738Z" fill="white"/>
<path d="M21.3432 16.743H2.65649L4.43867 15.4693C4.69531 15.2839 5.00897 15.1841 5.32263 15.1841H18.6723C18.9908 15.1841 19.2997 15.2839 19.5563 15.4693L21.3432 16.743Z" fill="#CED5E0"/>
<path d="M2.65649 16.7429C2.65649 17.3227 3.12699 17.7932 3.70679 17.7932H20.2834C20.8632 17.7932 21.3337 17.3227 21.3337 16.7429H2.65649Z" fill="#ACB3BA"/>
<path d="M13.3781 17.0662H10.6169V17.4226H13.3781V17.0662Z" fill="#324A5E"/>
<path d="M7.27615 6.77707H6.30664V7.74657H7.27615V6.77707Z" fill="#4CDBC4"/>
<path d="M7.27615 8.20279H6.30664V9.17229H7.27615V8.20279Z" fill="#FF7058"/>
<path d="M9.39551 10.0467H10.0133C10.1702 9.11046 10.9306 8.37858 11.8811 8.26452V7.6467C10.5931 7.76551 9.56184 8.76828 9.39551 10.0467Z" fill="#84DBFF"/>
<path d="M9.99453 10.5742H9.37671C9.4575 11.943 10.5316 13.0408 11.8813 13.1691V12.5513C10.869 12.4277 10.0706 11.6008 9.99453 10.5742Z" fill="#4CDBC4"/>
<path d="M14.3002 10.5742C14.2241 11.6008 13.4257 12.4277 12.4087 12.5513V13.1691C13.7631 13.0408 14.8325 11.943 14.9132 10.5742H14.3002Z" fill="#84DBFF"/>
<path d="M14.8942 10.0467C14.7279 8.77303 13.6966 7.76551 12.4087 7.6467V8.26452V9.88987V10.0467H14.2764H14.8942Z" fill="#FF7058"/>
<path d="M15.3792 7.11917L14.4287 8.07442L14.6901 8.3358L15.536 7.49462H16.8049V7.11917H15.3792Z" fill="#324A5E"/>
<path d="M8.58305 13.1833H7.27612V13.5587H8.73513L9.5288 12.7651L9.26266 12.5037L8.58305 13.1833Z" fill="#324A5E"/>
<path d="M9.69646 8.17314L9.07812 7.55481L8.81264 7.82029L9.43098 8.43862L9.69646 8.17314Z" fill="#324A5E"/>
<path d="M15.1312 13.1237L14.5095 12.502L14.244 12.7675L14.8657 13.3892L15.1312 13.1237Z" fill="#324A5E"/>
</svg>
