<svg width="200" height="200" viewBox="0 0 200 200" fill="none" xmlns="http://www.w3.org/2000/svg">
<path opacity="0.7" d="M27.172 66.8362C27.172 66.8362 16.02 95.6362 31.692 124.636C47.364 153.636 79.644 168.956 105.48 182.056C131.316 195.156 158.144 188.776 170.892 167.32C183.64 145.864 166.156 130.548 166.132 99.9522C166.108 69.3562 170.712 61.2562 154.132 35.4082C137.552 9.56022 96.908 3.83622 66.172 23.0082C35.436 42.1802 27.172 66.8362 27.172 66.8362Z" fill="white"/>
<path d="M52.7999 171.028C62.2399 180.996 85.4159 177.344 95.4559 171.028C128.056 150.528 185.168 116.4 187.756 66.9601C188.856 45.9481 170.324 34.9121 162.584 31.6761C144 23.9001 123.6 21.5681 103.46 20.6681C82.4319 19.7281 59.8599 20.4601 40.9359 30.7201C33.7599 34.6041 26.9919 39.6001 22.3599 46.4001C17.6559 53.3121 14.9479 61.5441 14.2279 69.8521C13.0719 83.2521 16.6759 96.6881 22.1279 108.984C27.5799 121.28 34.8479 132.664 41.5199 144.344C45.8759 151.956 44.8639 162.632 52.7999 171.028Z" fill="#FFC72C"/>
<path opacity="0.7" d="M52.7999 171.028C62.2399 180.996 85.4159 177.344 95.4559 171.028C128.056 150.528 185.168 116.4 187.756 66.9601C188.856 45.9481 170.324 34.9121 162.584 31.6761C144 23.9001 123.6 21.5681 103.46 20.6681C82.4319 19.7281 59.8599 20.4601 40.9359 30.7201C33.7599 34.6041 26.9919 39.6001 22.3599 46.4001C17.6559 53.3121 14.9479 61.5441 14.2279 69.8521C13.0719 83.2521 16.6759 96.6881 22.1279 108.984C27.5799 121.28 34.8479 132.664 41.5199 144.344C45.8759 151.956 44.8639 162.632 52.7999 171.028Z" fill="white"/>
<path d="M56.4846 56.2453L37.3038 50.4511C36.5594 50.2262 35.7736 50.6474 35.5488 51.3918L32.1372 62.6852C31.9123 63.4296 32.3335 64.2154 33.0779 64.4402L52.2587 70.2344C53.0031 70.4593 53.7888 70.0381 54.0137 69.2937L57.4253 58.0003C57.6501 57.2559 57.229 56.4702 56.4846 56.2453Z" stroke="#263238" stroke-width="1.00285" stroke-miterlimit="10"/>
<path d="M34.8721 53.1357L56.6761 59.7437" stroke="#263238" stroke-miterlimit="10"/>
<path d="M34.208 55.3232L56.016 61.9312" stroke="#263238" stroke-miterlimit="10"/>
<path d="M49.38 66.0237C49.3245 66.2078 49.3069 66.4012 49.3282 66.5924C49.3495 66.7835 49.4093 66.9683 49.504 67.1357C49.1771 67.2971 48.8011 67.3286 48.452 67.2237C48.2296 67.1565 48.0272 67.0358 47.8623 66.8722C47.6974 66.7086 47.5752 66.507 47.5064 66.2852C47.4376 66.0633 47.4242 65.828 47.4675 65.5998C47.5108 65.3716 47.6094 65.1575 47.7546 64.9762C47.8999 64.795 48.0874 64.6521 48.3007 64.5602C48.514 64.4683 48.7467 64.4301 48.9782 64.449C49.2097 64.4679 49.433 64.5433 49.6286 64.6686C49.8242 64.7939 49.986 64.9653 50.1 65.1677C49.9289 65.2551 49.7771 65.3759 49.6535 65.5229C49.5298 65.6699 49.4368 65.8402 49.38 66.0237Z" stroke="#263238" stroke-miterlimit="10"/>
<path d="M52.096 66.8475C52.0142 67.1162 51.8545 67.3545 51.6371 67.5324C51.4198 67.7104 51.1546 67.8198 50.875 67.847C50.5954 67.8742 50.3141 67.8178 50.0666 67.6851C49.819 67.5524 49.6164 67.3492 49.4844 67.1013C49.3523 66.8534 49.2967 66.5719 49.3247 66.2925C49.3526 66.013 49.4628 65.7481 49.6413 65.5312C49.8198 65.3143 50.0586 65.1553 50.3275 65.0742C50.5964 64.9931 50.8833 64.9935 51.152 65.0755C51.5121 65.1853 51.8139 65.4337 51.9909 65.766C52.1679 66.0983 52.2057 66.4873 52.096 66.8475Z" stroke="#263238" stroke-miterlimit="10"/>
<path d="M186.854 83.5056L170.994 78.6992C170.252 78.4743 169.468 78.8936 169.244 79.6356L166.464 88.8077C166.239 89.5498 166.658 90.3336 167.4 90.5585L183.26 95.365C184.002 95.5899 184.786 95.1706 185.011 94.4285L187.791 85.2565C188.015 84.5144 187.596 83.7305 186.854 83.5056Z" stroke="#263238" stroke-miterlimit="10"/>
<path d="M168.816 81.0479L187.364 86.6679" stroke="#263238" stroke-miterlimit="10"/>
<path d="M168.252 82.9111L186.796 88.5311" stroke="#263238" stroke-miterlimit="10"/>
<path d="M181.156 91.9992C181.108 92.1553 181.093 92.3196 181.111 92.4819C181.129 92.6442 181.179 92.8012 181.26 92.9431C181.085 93.0283 180.892 93.0696 180.697 93.0634C180.503 93.0573 180.312 93.0038 180.143 92.9077C179.974 92.8116 179.83 92.6758 179.725 92.5118C179.62 92.3479 179.556 92.1609 179.54 91.9669C179.523 91.7729 179.554 91.5777 179.629 91.3983C179.705 91.2188 179.823 91.0605 179.973 90.9368C180.124 90.8132 180.302 90.7281 180.493 90.6888C180.684 90.6495 180.881 90.6571 181.068 90.7112C181.365 90.8004 181.616 91.0011 181.768 91.2712C181.622 91.3444 181.492 91.4468 181.387 91.5719C181.282 91.6971 181.203 91.8425 181.156 91.9992V91.9992Z" stroke="#263238" stroke-miterlimit="10"/>
<path d="M183.464 92.712C183.393 92.9379 183.257 93.1379 183.073 93.2867C182.889 93.4354 182.665 93.5265 182.429 93.5482C182.194 93.57 181.957 93.5216 181.748 93.409C181.54 93.2965 181.37 93.1248 181.259 92.9157C181.148 92.7066 181.101 92.4693 181.125 92.2337C181.149 91.9982 181.241 91.7749 181.392 91.5919C181.542 91.4089 181.743 91.2745 181.969 91.2055C182.196 91.1364 182.437 91.1359 182.664 91.204C182.816 91.2497 182.958 91.3251 183.08 91.4258C183.203 91.5266 183.305 91.6507 183.379 91.791C183.454 91.9312 183.499 92.0849 183.514 92.243C183.529 92.4011 183.512 92.5605 183.464 92.712V92.712Z" stroke="#263238" stroke-miterlimit="10"/>
<path d="M161.472 39.685L138.319 50.2852L143.834 62.3307L166.987 51.7305L161.472 39.685Z" stroke="#263238" stroke-miterlimit="10"/>
<path d="M164.996 49.9997L161.492 42.3477C161.165 42.4971 160.791 42.5108 160.454 42.3856C160.117 42.2603 159.843 42.0065 159.692 41.6797L140.976 50.2477C141.125 50.5751 141.139 50.9483 141.014 51.2857C140.889 51.6231 140.635 51.8971 140.308 52.0477L143.812 59.6997C143.974 59.6253 144.15 59.5836 144.328 59.5771C144.506 59.5707 144.684 59.5995 144.852 59.6619C145.019 59.7243 145.172 59.8192 145.303 59.941C145.433 60.0628 145.538 60.2091 145.612 60.3717L164.324 51.7997C164.25 51.6374 164.208 51.4621 164.201 51.2837C164.195 51.1053 164.224 50.9274 164.286 50.7601C164.349 50.5929 164.443 50.4396 164.565 50.3091C164.687 50.1786 164.833 50.0735 164.996 49.9997Z" stroke="#263238" stroke-miterlimit="10"/>
<path d="M154.773 53.7717C156.297 52.6009 156.583 50.4161 155.412 48.892C154.242 47.3678 152.057 47.0813 150.533 48.2521C149.009 49.4229 148.722 51.6077 149.893 53.1318C151.064 54.656 153.249 54.9425 154.773 53.7717Z" stroke="#263238" stroke-miterlimit="10"/>
<path d="M153.6 52.6951L153.86 53.2631L153.612 53.3751L153.356 52.8151C152.918 53.0058 152.427 53.037 151.968 52.9031V52.5551C152.373 52.6778 152.809 52.6566 153.2 52.4951L152.612 51.1991C152.004 51.3151 151.376 51.4031 151.076 50.7471C150.86 50.2751 151.012 49.7071 151.74 49.3031L151.48 48.7311L151.728 48.6191L152 49.1991C152.36 49.043 152.756 48.9904 153.144 49.0471V49.3951C152.802 49.3458 152.454 49.3858 152.132 49.5111L152.732 50.8231C153.352 50.6991 154.012 50.5871 154.332 51.2511C154.532 51.7111 154.36 52.2911 153.6 52.6951ZM152.456 50.8511L151.888 49.5991C151.396 49.8751 151.288 50.2431 151.432 50.5551C151.6 50.9471 152 50.9311 152.452 50.8511H152.456ZM153.964 51.4151C153.788 51.0151 153.364 51.0551 152.892 51.1471L153.456 52.3831C154 52.0951 154.104 51.7311 153.96 51.4151H153.964Z" fill="#263238"/>
<path d="M33.6975 94.5558L15.8936 96.1582L16.727 105.418L34.5309 103.816L33.6975 94.5558Z" stroke="#263238" stroke-width="1.00404" stroke-miterlimit="10"/>
<path d="M33.1 101.944L32.596 96.0837C32.3453 96.1048 32.0964 96.0258 31.9038 95.8639C31.7111 95.702 31.5904 95.4704 31.568 95.2197L17.232 96.4597C17.2521 96.7102 17.1726 96.9586 17.0109 97.151C16.8492 97.3434 16.6183 97.4643 16.368 97.4877L16.872 103.348C16.9963 103.337 17.1215 103.35 17.2405 103.388C17.3595 103.425 17.4699 103.486 17.5654 103.566C17.6609 103.647 17.7396 103.745 17.797 103.856C17.8545 103.966 17.8895 104.087 17.9 104.212L32.236 102.972C32.216 102.721 32.2955 102.473 32.4572 102.28C32.6189 102.088 32.8498 101.967 33.1 101.944V101.944Z" stroke="#263238" stroke-miterlimit="10"/>
<path d="M27.1601 99.5076C27.2018 99.9876 27.1002 100.469 26.8682 100.892C26.6362 101.314 26.2841 101.658 25.8565 101.88C25.4289 102.102 24.945 102.193 24.466 102.14C23.9871 102.087 23.5345 101.893 23.1657 101.583C22.7968 101.273 22.5282 100.861 22.3939 100.398C22.2595 99.9351 22.2654 99.4429 22.4108 98.9835C22.5562 98.524 22.8346 98.1181 23.2108 97.8169C23.587 97.5158 24.044 97.3329 24.5241 97.2916C24.8428 97.2636 25.1638 97.2987 25.4689 97.395C25.7739 97.4913 26.057 97.6468 26.3019 97.8526C26.5467 98.0585 26.7486 98.3106 26.8958 98.5946C27.0431 98.8786 27.1329 99.1888 27.1601 99.5076V99.5076Z" stroke="#263238" stroke-miterlimit="10"/>
<path d="M24.9601 101.052L24.9961 101.488H24.8081L24.7681 101.056C24.4357 101.078 24.106 100.983 23.8361 100.788L23.9241 100.564C24.1628 100.737 24.4533 100.825 24.7481 100.812L24.6641 99.8158C24.2361 99.7518 23.8001 99.6598 23.7601 99.1598C23.7281 98.7958 23.9601 98.4558 24.5361 98.3598L24.5001 97.9238H24.6881L24.7241 98.3518C25.0015 98.3341 25.2784 98.3937 25.5241 98.5238L25.4481 98.7518C25.2346 98.6409 24.9966 98.5859 24.7561 98.5918L24.8401 99.5958C25.2761 99.6598 25.7401 99.7438 25.7841 100.252C25.8081 100.624 25.5561 100.964 24.9601 101.052ZM24.6401 99.5678L24.5561 98.6198C24.1561 98.6878 24.0121 98.9038 24.0321 99.1438C24.0521 99.3838 24.3201 99.5158 24.6401 99.5678ZM25.5001 100.296C25.4721 99.9958 25.1881 99.8958 24.8561 99.8638L24.9361 100.812C25.3521 100.744 25.5201 100.536 25.5001 100.296Z" fill="#263238"/>
<path d="M177.732 45.084C179.654 45.084 181.212 43.526 181.212 41.604C181.212 39.6821 179.654 38.124 177.732 38.124C175.81 38.124 174.252 39.6821 174.252 41.604C174.252 43.526 175.81 45.084 177.732 45.084Z" stroke="#263238" stroke-miterlimit="10"/>
<path d="M177.888 43.5359V44.1599H177.6V43.5399C177.123 43.5304 176.664 43.3567 176.3 43.0479L176.456 42.7359C176.774 43.0152 177.177 43.1787 177.6 43.1999V41.7719C177 41.6239 176.4 41.4399 176.4 40.7199C176.4 40.1999 176.776 39.7479 177.6 39.6839V39.0479H177.872V39.6679C178.265 39.6762 178.647 39.7939 178.976 40.0079L178.84 40.3279C178.55 40.1408 178.217 40.0319 177.872 40.0119V41.4519C178.484 41.5999 179.132 41.7719 179.132 42.5039C179.148 43.0279 178.752 43.4879 177.888 43.5359ZM177.616 41.3799V40.0239C177.056 40.0719 176.816 40.3599 176.816 40.7039C176.8 41.1159 177.168 41.2679 177.6 41.3799H177.616ZM178.752 42.5239C178.752 42.0959 178.352 41.9479 177.888 41.8319V43.1999C178.484 43.1479 178.752 42.8719 178.752 42.5239Z" fill="#263238"/>
<path d="M154.811 88.1598C156.682 87.719 157.841 85.8451 157.4 83.9744C156.959 82.1037 155.086 80.9445 153.215 81.3854C151.344 81.8262 150.185 83.7001 150.626 85.5708C151.067 87.4415 152.941 88.6007 154.811 88.1598Z" stroke="#263238" stroke-miterlimit="10"/>
<path d="M153.136 86.4953L152.812 87.0273L152.58 86.8833L152.904 86.3553C152.501 86.0994 152.201 85.7101 152.056 85.2553L152.352 85.0713C152.477 85.474 152.735 85.8223 153.084 86.0593L153.836 84.8393C153.4 84.4033 152.98 83.9273 153.356 83.3153C153.628 82.8713 154.184 82.6833 154.928 83.0633L155.256 82.5273L155.488 82.6713L155.164 83.1993C155.492 83.4131 155.756 83.7116 155.928 84.0633L155.644 84.2673C155.493 83.957 155.266 83.69 154.984 83.4913L154.228 84.7193C154.676 85.1673 155.136 85.6513 154.752 86.2753C154.476 86.7233 153.9 86.9033 153.136 86.4953ZM154.036 84.4953L154.744 83.3393C154.244 83.0873 153.88 83.1993 153.7 83.4913C153.484 83.8633 153.712 84.1873 154.036 84.5153V84.4953ZM154.404 86.0633C154.628 85.6993 154.368 85.3673 154.028 85.0233L153.316 86.1833C153.848 86.4793 154.22 86.3993 154.4 86.0833L154.404 86.0633Z" fill="#263238"/>
<path d="M104.072 17.5996C104.358 18.2256 104.452 18.9224 104.341 19.6018C104.231 20.2811 103.922 20.9126 103.453 21.4162C102.984 21.9199 102.376 22.2732 101.707 22.4315C101.037 22.5898 100.335 22.5459 99.6903 22.3054C99.0454 22.0649 98.4864 21.6386 98.0838 21.0804C97.6812 20.5222 97.4531 19.8572 97.4285 19.1694C97.4039 18.4816 97.5837 17.802 97.9453 17.2164C98.3069 16.6308 98.834 16.1656 99.46 15.8796C99.8757 15.689 100.325 15.5824 100.782 15.5658C101.239 15.5491 101.694 15.6228 102.123 15.7826C102.551 15.9424 102.944 16.1851 103.278 16.4969C103.613 16.8087 103.883 17.1834 104.072 17.5996V17.5996Z" stroke="#263238" stroke-miterlimit="10"/>
<path d="M101.852 20.7314L102.112 21.2994L101.864 21.4154L101.6 20.8514C101.162 21.042 100.671 21.0732 100.212 20.9394V20.5914C100.616 20.7134 101.049 20.6936 101.44 20.5354L100.848 19.2314C100.24 19.3474 99.612 19.4314 99.312 18.7794C99.096 18.3034 99.248 17.7394 99.98 17.3354L99.72 16.7634L99.964 16.6514L100.224 17.2154C100.584 17.0593 100.98 17.0066 101.368 17.0634V17.4114C101.026 17.3629 100.678 17.4029 100.356 17.5274L100.956 18.8394C101.576 18.7154 102.236 18.6074 102.556 19.2674C102.8 19.7474 102.616 20.3274 101.852 20.7314ZM100.708 18.8874L100.144 17.6514C99.652 17.9274 99.544 18.2954 99.688 18.6034C99.86 18.9794 100.256 18.9674 100.708 18.8874ZM102.216 19.4514C102.036 19.0514 101.616 19.0954 101.144 19.1834L101.708 20.4194C102.232 20.1314 102.36 19.7714 102.216 19.4514Z" fill="#263238"/>
<path d="M92.3522 158.531C92.7816 159.472 92.9225 160.519 92.757 161.539C92.5916 162.56 92.1272 163.509 91.4226 164.265C90.718 165.022 89.8048 165.553 88.7986 165.79C87.7923 166.028 86.7382 165.962 85.7694 165.601C84.8006 165.24 83.9608 164.599 83.356 163.761C82.7512 162.922 82.4087 161.923 82.3717 160.889C82.3348 159.856 82.6051 158.835 83.1484 157.955C83.6917 157.076 84.4837 156.377 85.4242 155.947C86.0487 155.662 86.7234 155.502 87.4096 155.478C88.0958 155.453 88.7801 155.564 89.4234 155.804C90.0667 156.044 90.6565 156.409 91.159 156.876C91.6616 157.344 92.067 157.907 92.3522 158.531V158.531Z" stroke="#263238" stroke-miterlimit="10"/>
<path d="M89.012 163.243L89.412 164.099L89.0401 164.267L88.6401 163.419C87.9827 163.707 87.2452 163.755 86.5561 163.555L86.5801 163.035C87.1872 163.216 87.838 163.184 88.424 162.943L87.5321 160.991C86.6241 161.163 85.6761 161.291 85.2281 160.311C84.9001 159.599 85.1321 158.747 86.2281 158.139L85.8281 157.287L86.1961 157.115L86.5961 157.963C87.1375 157.73 87.7327 157.651 88.316 157.735V158.255C87.804 158.183 87.2819 158.244 86.8001 158.431L87.6961 160.399C88.6281 160.215 89.62 160.051 90.076 161.043C90.42 161.767 90.164 162.639 89.012 163.243ZM87.3001 160.471L86.4481 158.615C85.7161 159.015 85.5521 159.579 85.7681 160.051C86.0241 160.615 86.6161 160.595 87.3001 160.471ZM89.564 161.323C89.296 160.735 88.6601 160.783 87.9641 160.923L88.812 162.779C89.6 162.343 89.78 161.799 89.564 161.323Z" fill="#263238"/>
<path d="M17.4641 77.2916C16.6873 77.9739 15.7256 78.4106 14.7007 78.5464C13.6758 78.6823 12.6336 78.5111 11.7059 78.0547C10.7782 77.5983 10.0067 76.877 9.48887 75.9822C8.97105 75.0873 8.73019 74.059 8.79673 73.0272C8.86328 71.9955 9.23425 71.0066 9.86273 70.1857C10.4912 69.3648 11.349 68.7486 12.3276 68.4152C13.3063 68.0817 14.3618 68.0459 15.3608 68.3122C16.3598 68.5786 17.2574 69.1352 17.9401 69.9116C18.3935 70.4274 18.741 71.0274 18.9625 71.6775C19.184 72.3276 19.2752 73.0149 19.231 73.7002C19.1868 74.3856 19.008 75.0555 18.7049 75.6717C18.4017 76.288 17.98 76.8384 17.4641 77.2916Z" stroke="#263238" stroke-miterlimit="10"/>
<path d="M12.0001 75.452L11.2961 76.072L11.0241 75.764L11.7241 75.152C11.2603 74.6033 11.0016 73.9104 10.9921 73.192L11.5001 73.064C11.5003 73.6942 11.7131 74.3058 12.1041 74.8L13.7041 73.384C13.2761 72.564 12.8801 71.692 13.7041 70.984C14.2961 70.468 15.1761 70.444 16.0721 71.316L16.8001 70.7L17.0681 71.004L16.3681 71.62C16.7404 72.073 16.9812 72.6195 17.0641 73.2L16.5681 73.364C16.4884 72.8526 16.2806 72.3696 15.9641 71.96L14.3361 73.388C14.7801 74.224 15.2241 75.128 14.4041 75.852C13.8081 76.372 12.9001 76.4 12.0001 75.452ZM14.1601 73.012L15.6921 71.664C15.0841 71.08 14.4921 71.084 14.1241 71.424C13.6441 71.832 13.8361 72.4 14.1481 73.012H14.1601ZM13.9961 75.412C14.4841 74.988 14.2561 74.392 13.9201 73.752L12.3881 75.1C13.0161 75.744 13.6001 75.768 14.0001 75.424L13.9961 75.412Z" fill="#263238"/>
<path d="M41.397 121.883C41.4528 120.489 40.3679 119.314 38.974 119.258C37.58 119.202 36.4048 120.287 36.349 121.681C36.2932 123.075 37.3781 124.25 38.7721 124.306C40.166 124.362 41.3413 123.277 41.397 121.883Z" stroke="#263238" stroke-width="1.0008" stroke-miterlimit="10"/>
<path d="M39.6001 122.271L39.8881 122.619L39.7401 122.743L39.4521 122.399C39.1814 122.617 38.8432 122.733 38.4961 122.727L38.4401 122.479C38.7454 122.488 39.0444 122.392 39.2881 122.207L38.6241 121.407C38.2241 121.603 37.8001 121.783 37.4641 121.383C37.2241 121.095 37.2241 120.667 37.6561 120.243L37.3641 119.895L37.5161 119.771L37.8041 120.115C38.0268 119.939 38.2939 119.827 38.5761 119.791L38.6481 120.031C38.4008 120.066 38.1659 120.161 37.9641 120.307L38.6321 121.107C39.0321 120.903 39.4841 120.707 39.8321 121.107C40.0761 121.403 40.0681 121.843 39.6001 122.271ZM38.4561 121.199L37.8241 120.443C37.5361 120.731 37.5321 121.007 37.6881 121.199C37.8441 121.391 38.1561 121.339 38.4561 121.199ZM39.6201 121.307C39.4201 121.071 39.1321 121.171 38.8201 121.327L39.4521 122.083C39.7601 121.779 39.7801 121.499 39.6201 121.303V121.307Z" fill="#263238"/>
<path d="M119.036 171.667C119.355 172.051 119.554 172.521 119.606 173.017C119.659 173.513 119.563 174.014 119.331 174.456C119.098 174.898 118.74 175.261 118.302 175.499C117.864 175.738 117.364 175.841 116.867 175.796C116.37 175.75 115.898 175.559 115.509 175.245C115.121 174.931 114.835 174.509 114.686 174.033C114.538 173.556 114.534 173.046 114.675 172.568C114.817 172.089 115.097 171.663 115.48 171.343C115.995 170.916 116.658 170.709 117.325 170.77C117.992 170.831 118.607 171.154 119.036 171.667V171.667Z" stroke="#263238" stroke-miterlimit="10"/>
<path d="M118.076 174.287L118.368 174.635L118.216 174.759L117.928 174.415C117.659 174.633 117.322 174.749 116.976 174.743L116.92 174.495C117.226 174.505 117.525 174.409 117.768 174.223L117.104 173.423C116.704 173.619 116.276 173.799 115.944 173.399C115.7 173.111 115.7 172.683 116.132 172.259L115.844 171.911L115.996 171.787L116.284 172.131C116.506 171.953 116.773 171.84 117.056 171.807L117.128 172.047C116.88 172.081 116.643 172.176 116.44 172.323L117.112 173.123C117.512 172.919 117.964 172.723 118.312 173.123C118.544 173.419 118.536 173.859 118.076 174.287ZM116.928 173.199L116.296 172.443C116.004 172.731 116 173.007 116.16 173.199C116.32 173.391 116.624 173.355 116.928 173.199ZM118.088 173.311C117.888 173.071 117.6 173.171 117.288 173.311L117.92 174.067C118.232 173.795 118.252 173.515 118.088 173.323V173.311Z" fill="#263238"/>
<path d="M49.9549 27.8734C50.0822 26.4852 49.0601 25.2567 47.672 25.1294C46.2838 25.0021 45.0553 26.0242 44.928 27.4123C44.8007 28.8005 45.8228 30.029 47.211 30.1563C48.5991 30.2836 49.8276 29.2615 49.9549 27.8734Z" stroke="#263238" stroke-miterlimit="10"/>
<path d="M48.428 28.6475L48.716 28.9955L48.564 29.1195L48.276 28.7755C48.0072 28.9936 47.6701 29.1098 47.324 29.1035L47.268 28.8555C47.5733 28.8635 47.8723 28.7676 48.116 28.5835L47.452 27.7835C47.052 27.9795 46.624 28.1595 46.292 27.7595C46.052 27.4715 46.048 27.0435 46.484 26.6195L46.192 26.2715L46.344 26.1475L46.632 26.4915C46.8542 26.3139 47.1216 26.2017 47.404 26.1675L47.476 26.4075C47.2287 26.4417 46.9938 26.5366 46.792 26.6835L47.46 27.4835C47.86 27.2795 48.312 27.0835 48.66 27.4835C48.896 27.7795 48.884 28.2195 48.428 28.6475ZM47.276 27.5715L46.644 26.7995C46.356 27.0875 46.348 27.3635 46.508 27.5555C46.668 27.7475 46.972 27.7155 47.276 27.5715ZM48.44 27.6795C48.24 27.4435 47.948 27.5435 47.64 27.6795L48.272 28.4355C48.58 28.1555 48.6 27.8755 48.44 27.6795Z" fill="#263238"/>
<path opacity="0.2" d="M104.324 131.123C104.324 131.123 101.24 146.775 82.3241 150.323C82.3241 150.323 77.3841 154.263 75.7401 156.595C74.0961 158.927 65.3401 162.891 56.4201 175.259C47.5001 187.627 34.2201 148.351 34.2201 148.351L63.5721 110.231L104.324 131.123Z" fill="black" fill-opacity="0.7"/>
<path d="M121.136 57.632C121.136 57.632 131.336 52.644 133.58 53.504C135.824 54.364 137.98 59.524 129.4 64.464C120.82 69.404 123.38 78.608 123.38 78.608H129.5C129.5 78.608 133.172 80.104 134.6 82.028C136.028 83.952 137.048 90.512 137.864 92.736C138.68 94.96 138.264 97.188 136.028 97.912C136.028 97.912 134.6 104.136 135.008 106.896C135.416 109.656 135.212 111.432 132.56 111.768C131.893 111.838 131.218 111.761 130.583 111.544C129.949 111.327 129.368 110.975 128.883 110.511C128.398 110.048 128.02 109.485 127.774 108.86C127.528 108.236 127.421 107.566 127.46 106.896L125.42 114.288L126.848 117.128C128.865 117.909 130.73 119.038 132.356 120.464C135.212 122.912 138.068 123.58 137.252 126.308C136.436 129.036 134.804 131.976 126.236 128.568C117.668 125.16 110.528 111.768 110.528 111.768L105.38 65.072L121.136 57.632Z" fill="white"/>
<path opacity="0.4" d="M131.872 84.456C127.248 90.76 132.364 98.02 132.364 98.02C132.364 98.02 129.164 99.804 129.072 104.356C129.036 106.248 129.512 108.892 130.08 111.34C129.248 110.947 128.554 110.313 128.088 109.521C127.621 108.728 127.404 107.814 127.464 106.896L125.42 114.288L126.848 117.124C128.35 117.699 129.766 118.478 131.056 119.44C129.788 122.352 129.4 125.952 129.512 129.664C128.398 129.368 127.304 129.002 126.236 128.568C117.668 125.156 110.528 111.768 110.528 111.768L105.38 65.068L121.136 57.632C121.136 57.632 126.708 54.908 130.524 53.832C130.228 57.4 130.924 61.092 131.428 63.148C130.777 63.6243 130.1 64.0637 129.4 64.464C120.832 69.404 123.38 78.608 123.38 78.608H129.504C129.504 78.608 132.992 80.032 134.488 81.884C133.465 82.5727 132.578 83.4447 131.872 84.456Z" fill="#FFC72C"/>
<path d="M105.2 123.6C105.2 123.6 94.1041 145.356 74.1041 150.292C74.1041 150.292 73.3401 154.596 69.9561 156.444C68.1481 157.428 60.8521 168.36 54.4481 178.34L18.9761 156.58C21.1601 154.42 23.6481 151.932 26.1761 149.336C33.5761 141.792 41.4721 133.336 43.8881 129.152C46.0481 125.432 48.7801 118.976 51.1601 112.908C54.2081 105.148 56.6881 98.02 56.6881 98.02L68.5121 84.876L87.1001 64.208L87.9001 66.852L105.2 123.6Z" fill="white"/>
<path opacity="0.4" d="M87.1161 64.208L105.2 123.6C105.2 123.6 94.1041 145.356 74.1041 150.292C74.1041 150.292 73.3401 154.596 69.9561 156.444C68.3321 157.328 62.2881 166.228 56.4401 175.244C58.6081 167.804 64.8841 155.944 64.8841 155.944C60.8561 151.172 62.0321 146.144 63.6441 147.576C65.2561 149.008 69.3081 153.032 69.5641 153.284C67.7841 151.188 67.3721 147.904 67.3721 147.904C67.3721 147.904 72.3641 151.224 72.7681 145.904C73.1721 140.584 69.7761 127.584 69.7761 127.584L60.8601 93.4L87.1161 64.208Z" fill="#FFC72C"/>
<path d="M105.38 65.072L121.136 57.632C121.136 57.632 131.336 52.644 133.58 53.504C135.824 54.364 137.98 59.524 129.4 64.464C120.82 69.404 123.38 78.608 123.38 78.608H129.5C129.5 78.608 133.172 80.104 134.6 82.028C136.028 83.952 137.048 90.512 137.864 92.736C138.68 94.96 138.264 97.188 136.028 97.912C136.028 97.912 134.6 104.136 135.008 106.896C135.416 109.656 135.212 111.432 132.56 111.768C131.893 111.838 131.218 111.761 130.583 111.544C129.949 111.327 129.368 110.975 128.883 110.511C128.398 110.048 128.02 109.485 127.774 108.86C127.528 108.236 127.421 107.566 127.46 106.896L125.42 114.288L126.848 117.128C128.865 117.909 130.73 119.038 132.356 120.464C135.212 122.912 138.068 123.58 137.252 126.308C136.436 129.036 134.804 131.976 126.236 128.568C117.668 125.16 110.528 111.768 110.528 111.768" stroke="#263238" stroke-linecap="round" stroke-linejoin="round"/>
<path d="M136.028 97.9115C132.968 98.7395 129.4 98.1275 128.072 92.7115C126.744 87.2955 129.4 81.5115 131.132 80.9795" stroke="#263238" stroke-linecap="round" stroke-linejoin="round"/>
<path d="M127.46 106.896C127.46 106.896 127.256 99.9319 129.808 98.2119" stroke="#263238" stroke-linecap="round" stroke-linejoin="round"/>
<path opacity="0.4" d="M53.048 141.484C53.048 141.484 45.572 140.552 43.904 137.208C42.524 134.44 35.044 144.808 26.192 149.336C33.592 141.792 41.488 133.336 43.904 129.152C46.064 125.432 48.796 118.976 51.176 112.908C51.056 117.94 48.376 125.644 49.14 129.656C48.3214 129.873 47.621 130.403 47.1905 131.132C46.76 131.861 46.6341 132.731 46.84 133.552C47.412 136.74 53.048 141.484 53.048 141.484Z" fill="#FFC72C"/>
<path d="M105.2 123.6C105.2 123.6 94.1041 145.356 74.1001 150.292C74.1001 150.292 73.3401 154.596 69.9561 156.444C68.1481 157.428 60.8561 168.36 54.4441 178.34" stroke="#263238" stroke-linecap="round" stroke-linejoin="round"/>
<path d="M18.9761 156.58C27.5201 148.136 40.6521 134.748 43.9041 129.152C48.8241 120.684 56.7041 98.016 56.7041 98.016L87.1041 64.208" stroke="#263238" stroke-linecap="round" stroke-linejoin="round"/>
<path d="M69.756 90.0283C69.756 90.0283 74.428 94.2123 75.756 98.0283" stroke="#263238" stroke-linecap="round" stroke-linejoin="round"/>
<path d="M124.904 29.0879H74.6361C73.1493 29.0879 71.9441 30.2931 71.9441 31.7799V138.792C71.9441 140.279 73.1493 141.484 74.6361 141.484H124.904C126.391 141.484 127.596 140.279 127.596 138.792V31.7799C127.596 30.2931 126.391 29.0879 124.904 29.0879Z" fill="#263238"/>
<path d="M110.8 32.148L109.736 34.096C109.624 34.3074 109.456 34.4844 109.251 34.6083C109.046 34.7323 108.811 34.7985 108.572 34.8H90.972C90.7329 34.7987 90.4986 34.7335 90.2932 34.6111C90.0878 34.4887 89.9189 34.3136 89.804 34.104L88.744 32.156C88.6301 31.9455 88.4615 31.7697 88.2559 31.6471C88.0503 31.5246 87.8154 31.46 87.576 31.46H75.276C75.1008 31.4605 74.9273 31.4956 74.7657 31.5633C74.604 31.6309 74.4573 31.7298 74.3339 31.8543C74.2105 31.9788 74.113 32.1264 74.0467 32.2887C73.9805 32.451 73.947 32.6247 73.948 32.8V138C73.948 138.353 74.0878 138.691 74.3367 138.94C74.5857 139.19 74.9235 139.331 75.276 139.332H124.26C124.436 139.333 124.61 139.299 124.772 139.233C124.935 139.166 125.083 139.068 125.207 138.945C125.332 138.821 125.43 138.674 125.498 138.512C125.565 138.349 125.6 138.176 125.6 138V32.8C125.6 32.4467 125.46 32.1079 125.21 31.8581C124.96 31.6083 124.621 31.468 124.268 31.468H111.972C111.734 31.4657 111.499 31.5276 111.293 31.6472C111.087 31.7669 110.916 31.9398 110.8 32.148Z" fill="#FFC72C" stroke="#263238" stroke-linecap="round" stroke-linejoin="round"/>
<path d="M95.9521 33.0922C96.3475 33.0922 96.6681 32.7716 96.6681 32.3762C96.6681 31.9807 96.3475 31.6602 95.9521 31.6602C95.5567 31.6602 95.2361 31.9807 95.2361 32.3762C95.2361 32.7716 95.5567 33.0922 95.9521 33.0922Z" stroke="white" stroke-miterlimit="10"/>
<path d="M104.3 32.3757C104.299 32.4634 104.273 32.5488 104.223 32.6213C104.174 32.6938 104.104 32.7501 104.023 32.7831C103.942 32.8161 103.853 32.8243 103.767 32.8067C103.681 32.7891 103.602 32.7465 103.541 32.6843C103.479 32.622 103.437 32.5429 103.42 32.4569C103.404 32.3709 103.413 32.2818 103.446 32.2009C103.48 32.12 103.537 32.0509 103.61 32.0023C103.683 31.9537 103.768 31.9277 103.856 31.9277C103.915 31.9277 103.973 31.9393 104.027 31.9619C104.081 31.9845 104.13 32.0175 104.171 32.0592C104.213 32.1008 104.245 32.1503 104.267 32.2046C104.29 32.2589 104.301 32.3171 104.3 32.3757V32.3757Z" stroke="white" stroke-miterlimit="10"/>
<path d="M102.308 32.0957H97.9561C97.9195 32.0957 97.8833 32.103 97.8495 32.1171C97.8158 32.1312 97.7852 32.1519 97.7595 32.178C97.7338 32.204 97.7136 32.2349 97.6999 32.2689C97.6863 32.3028 97.6796 32.3391 97.6801 32.3757C97.6801 32.4489 97.7092 32.5191 97.7609 32.5709C97.8127 32.6226 97.8829 32.6517 97.9561 32.6517H102.308C102.381 32.6517 102.451 32.6226 102.503 32.5709C102.555 32.5191 102.584 32.4489 102.584 32.3757C102.585 32.3391 102.578 32.3028 102.564 32.2689C102.551 32.2349 102.53 32.204 102.505 32.178C102.479 32.1519 102.448 32.1312 102.415 32.1171C102.381 32.103 102.345 32.0957 102.308 32.0957Z" fill="white"/>
<path d="M83.056 34.1279H78.364V36.1199H83.056V34.1279Z" stroke="#263238" stroke-linecap="round" stroke-linejoin="round"/>
<path d="M83.78 34.4639H83.052V35.7879H83.78V34.4639Z" stroke="#263238" stroke-linecap="round" stroke-linejoin="round"/>
<path d="M116.304 35.3994H115.472V36.1234H116.304V35.3994Z" stroke="#263238" stroke-linecap="round" stroke-linejoin="round"/>
<path d="M117.928 34.6719H117.096V36.1239H117.928V34.6719Z" stroke="#263238" stroke-linecap="round" stroke-linejoin="round"/>
<path d="M119.552 33.9443H118.72V36.1203H119.552V33.9443Z" stroke="#263238" stroke-linecap="round" stroke-linejoin="round"/>
<path d="M121.172 33.2158H120.34V36.1198H121.172V33.2158Z" stroke="#263238" stroke-linecap="round" stroke-linejoin="round"/>
<path opacity="0.5" d="M125.256 54.7041H74.2802V103.324H125.256V54.7041Z" fill="white"/>
<path d="M88.3601 46.9401V47.7841C88.3601 48.8281 87.8601 49.3841 86.8361 49.3841H86.3521V51.8281H85.3281V45.3281H86.8361C87.8601 45.3281 88.3601 45.8961 88.3601 46.9401ZM86.3601 46.2601V48.4641H86.8441C87.1681 48.4641 87.3441 48.3161 87.3441 47.8521V46.8721C87.3441 46.4081 87.1681 46.2601 86.8441 46.2601H86.3601Z" fill="#263238"/>
<path d="M92.0281 51.8401H90.9961L90.8161 50.6601H89.5641L89.3841 51.8401H88.4441L89.4881 45.3281H90.9841L92.0281 51.8401ZM89.6921 49.7761H90.6801L90.1961 46.4841H90.1761L89.6921 49.7761Z" fill="#263238"/>
<path d="M93.0042 49.6841L91.7122 45.3281H92.8002L93.5722 48.2961H93.5922L94.3642 45.3281H95.3402L94.0482 49.6841V51.8401H93.0242L93.0042 49.6841Z" fill="#263238"/>
<path d="M97.8881 49.9521H97.9081L98.5961 45.3281H100.02V51.8401H99.0521V47.1721L98.3641 51.8401H97.3961L96.6521 47.2361V51.8401H95.7201V45.3281H97.1441L97.8881 49.9521Z" fill="#263238"/>
<path d="M101.788 48.0721H103.2V49.0041H101.796V50.9121H103.564V51.8401H100.764V45.3281H103.564V46.2601H101.796L101.788 48.0721Z" fill="#263238"/>
<path d="M105.12 47.1241H105.1V51.8401H104.18V45.3281H105.464L106.496 49.2281V45.3281H107.408V51.8401H106.36L105.12 47.1241Z" fill="#263238"/>
<path d="M107.864 45.3281H111.028V46.2601H109.956V51.8401H108.932V46.2601H107.864V45.3281Z" fill="#263238"/>
<path d="M112.852 45.2559C113.844 45.2559 114.356 45.8519 114.356 46.8919V47.0959H113.388V46.8279C113.388 46.3599 113.204 46.1839 112.876 46.1839C112.548 46.1839 112.368 46.3599 112.368 46.8279C112.368 47.2959 112.572 47.6559 113.24 48.2399C114.096 48.9959 114.368 49.5319 114.368 50.2759C114.368 51.3199 113.844 51.9159 112.84 51.9159C111.836 51.9159 111.316 51.3199 111.316 50.2759V49.8759H112.284V50.3439C112.284 50.8079 112.488 50.9759 112.812 50.9759C113.136 50.9759 113.344 50.8079 113.344 50.3439C113.344 49.8799 113.14 49.5159 112.468 48.9279C111.612 48.1759 111.344 47.6359 111.344 46.8919C111.344 45.8519 111.856 45.2559 112.852 45.2559Z" fill="#263238"/>
<path d="M121.172 60.5957H78.364V66.9917H121.172V60.5957Z" fill="white" stroke="#263238" stroke-linecap="round" stroke-linejoin="round"/>
<path d="M121.172 72.5918H78.364V78.9878H121.172V72.5918Z" fill="white" stroke="#263238" stroke-linecap="round" stroke-linejoin="round"/>
<path d="M121.172 83.5H78.364V89.896H121.172V83.5Z" fill="white" stroke="#263238" stroke-linecap="round" stroke-linejoin="round"/>
<path d="M98.632 92.2275H78.364V99.7155H98.632V92.2275Z" fill="white" stroke="#263238" stroke-linecap="round" stroke-linejoin="round"/>
<path d="M121.176 92.2275H100.908V99.7155H121.176V92.2275Z" fill="white" stroke="#263238" stroke-linecap="round" stroke-linejoin="round"/>
<path d="M81.032 59.4798V59.6518H79.692V57.7598H80.992V57.9318H79.896V58.6078H80.872V58.7758H79.896V59.4798H81.032Z" fill="#263238"/>
<path d="M83.808 58.8283V59.6523H83.6V58.8523C83.6 58.5523 83.448 58.3963 83.2 58.3963C83.1332 58.3935 83.0667 58.4053 83.0049 58.4308C82.9432 58.4563 82.8877 58.4949 82.8424 58.544C82.7971 58.5931 82.763 58.6515 82.7426 58.7151C82.7221 58.7787 82.7158 58.846 82.724 58.9123V59.6563H82.532V58.8563C82.532 58.5563 82.38 58.4003 82.132 58.4003C82.0652 58.3975 81.9987 58.4093 81.9369 58.4348C81.8752 58.4603 81.8197 58.4989 81.7744 58.548C81.7291 58.5971 81.695 58.6555 81.6746 58.7191C81.6541 58.7827 81.6478 58.85 81.656 58.9163V59.6603H81.464V58.2403H81.648V58.5003C81.7027 58.4119 81.7802 58.34 81.8725 58.2921C81.9647 58.2442 82.0682 58.2222 82.172 58.2283C82.2768 58.2195 82.3817 58.2437 82.4721 58.2975C82.5625 58.3513 82.6338 58.432 82.676 58.5283C82.7342 58.4322 82.8174 58.3535 82.9167 58.3007C83.016 58.2479 83.1277 58.2229 83.24 58.2283C83.3187 58.223 83.3977 58.2352 83.4712 58.264C83.5447 58.2927 83.611 58.3373 83.6652 58.3946C83.7195 58.452 83.7604 58.5206 83.7851 58.5955C83.8098 58.6705 83.8176 58.75 83.808 58.8283Z" fill="#263238"/>
<path d="M85.4042 58.7721V59.6521H85.2202V59.4321C85.1662 59.5113 85.0923 59.5748 85.0059 59.6163C84.9195 59.6577 84.8237 59.6756 84.7282 59.6681C84.4082 59.6681 84.2122 59.5001 84.2122 59.2681C84.2122 59.0361 84.3522 58.8681 84.7602 58.8681H85.2002V58.7801C85.2002 58.5361 85.0602 58.4041 84.8002 58.4041C84.6277 58.4015 84.4601 58.4611 84.3282 58.5721L84.2402 58.4281C84.406 58.2999 84.6106 58.2322 84.8202 58.2361C84.8955 58.2238 84.9727 58.2287 85.0458 58.2506C85.119 58.2724 85.1862 58.3106 85.2424 58.3622C85.2987 58.4138 85.3425 58.4775 85.3705 58.5485C85.3985 58.6196 85.41 58.696 85.4042 58.7721ZM85.2122 59.2281V58.9921H84.7642C84.4882 58.9921 84.4002 59.1001 84.4002 59.2481C84.4002 59.3961 84.5322 59.5161 84.7602 59.5161C84.8541 59.5188 84.9467 59.4927 85.0254 59.4412C85.104 59.3897 85.165 59.3154 85.2002 59.2281H85.2122Z" fill="#263238"/>
<path d="M85.8801 57.7835C85.8812 57.747 85.8964 57.7124 85.9225 57.687C85.9487 57.6616 85.9837 57.6474 86.0201 57.6475C86.0562 57.6475 86.0908 57.6618 86.1163 57.6873C86.1418 57.7128 86.1561 57.7474 86.1561 57.7835C86.1561 57.8195 86.1418 57.8541 86.1163 57.8796C86.0908 57.9051 86.0562 57.9195 86.0201 57.9195C85.9837 57.9195 85.9487 57.9053 85.9225 57.8799C85.8964 57.8545 85.8812 57.8199 85.8801 57.7835ZM85.9241 58.2315H86.1161V59.6515H85.9241V58.2315Z" fill="#263238"/>
<path d="M86.6521 57.6475H86.8441V59.6475H86.6521V57.6475Z" fill="#263238"/>
<path d="M82.356 64.3997V64.5717H81.016V62.6797H82.316V62.8517H81.2V63.5237H82.18V63.6957H81.2V64.3997H82.356Z" fill="#263238"/>
<path d="M85.132 63.74V64.564H84.94V63.764C84.94 63.464 84.788 63.308 84.54 63.308C84.4735 63.3046 84.407 63.3158 84.3452 63.3408C84.2835 63.3659 84.2279 63.4041 84.1826 63.4529C84.1372 63.5018 84.103 63.5599 84.0826 63.6233C84.0621 63.6868 84.0558 63.7539 84.064 63.82V64.568H83.872V63.768C83.872 63.468 83.72 63.312 83.472 63.312C83.4055 63.3086 83.339 63.3198 83.2772 63.3448C83.2155 63.3699 83.1599 63.4081 83.1145 63.4569C83.0692 63.5058 83.035 63.5639 83.0146 63.6273C82.9941 63.6908 82.9878 63.7579 82.9961 63.824V64.572H82.8V63.148H82.9841V63.408C83.0395 63.3207 83.1174 63.2498 83.2095 63.2026C83.3017 63.1555 83.4047 63.1339 83.508 63.14C83.6127 63.1324 83.7171 63.1571 83.8073 63.2107C83.8974 63.2644 83.9689 63.3444 84.012 63.44C84.07 63.3436 84.1531 63.2647 84.2524 63.2118C84.3518 63.159 84.4637 63.1341 84.576 63.14C84.6538 63.1366 84.7314 63.1501 84.8034 63.1796C84.8755 63.2092 84.9402 63.2541 84.9931 63.3112C85.046 63.3683 85.0858 63.4362 85.1098 63.5103C85.1338 63.5844 85.1414 63.6628 85.132 63.74Z" fill="#263238"/>
<path d="M86.724 63.6838V64.5638H86.54V64.3438C86.4868 64.4225 86.4134 64.4856 86.3276 64.5264C86.2418 64.5672 86.1466 64.5842 86.052 64.5758C85.732 64.5758 85.532 64.4078 85.532 64.1758C85.532 63.9438 85.676 63.7758 86.084 63.7758H86.536V63.6918C86.536 63.4478 86.396 63.3158 86.136 63.3158C85.9624 63.3136 85.7937 63.3731 85.66 63.4838L85.576 63.3398C85.7405 63.2092 85.946 63.1412 86.156 63.1478C86.2301 63.1381 86.3055 63.145 86.3766 63.1681C86.4477 63.1911 86.5128 63.2297 86.5672 63.281C86.6216 63.3323 86.6638 63.3951 86.6909 63.4647C86.7181 63.5344 86.7293 63.6092 86.724 63.6838ZM86.536 64.1358V63.9038H86.088C85.812 63.9038 85.724 64.0118 85.724 64.1598C85.724 64.3078 85.856 64.4278 86.084 64.4278C86.1805 64.4334 86.2764 64.4081 86.3576 64.3556C86.4389 64.3031 86.5013 64.2261 86.536 64.1358Z" fill="#263238"/>
<path d="M87.2001 62.6917C87.2011 62.6553 87.2163 62.6207 87.2425 62.5953C87.2686 62.5699 87.3036 62.5557 87.3401 62.5557C87.3583 62.5552 87.3764 62.5583 87.3933 62.5649C87.4103 62.5715 87.4258 62.5814 87.4388 62.5941C87.4519 62.6068 87.4623 62.622 87.4694 62.6387C87.4764 62.6555 87.4801 62.6735 87.4801 62.6917C87.4801 62.7289 87.4653 62.7645 87.4391 62.7907C87.4128 62.817 87.3772 62.8317 87.3401 62.8317C87.3029 62.8317 87.2673 62.817 87.2411 62.7907C87.2148 62.7645 87.2001 62.7289 87.2001 62.6917ZM87.2441 63.1397H87.4361V64.5637H87.2441V63.1397Z" fill="#263238"/>
<path d="M87.9761 62.5557H88.1641V64.5557H87.9761V62.5557Z" fill="#263238"/>
<path d="M90 63.7395V64.5635H89.808V63.7635C89.8165 63.7044 89.8117 63.6442 89.7939 63.5872C89.7761 63.5302 89.7457 63.4779 89.705 63.4342C89.6644 63.3904 89.6144 63.3564 89.5589 63.3345C89.5033 63.3125 89.4436 63.3033 89.384 63.3075C89.3159 63.3018 89.2473 63.3113 89.1832 63.3352C89.1192 63.3591 89.0612 63.3968 89.0134 63.4457C88.9656 63.4947 88.9292 63.5535 88.9069 63.6182C88.8845 63.6828 88.8767 63.7515 88.884 63.8195V64.5675H88.692V63.1435H88.876V63.4075C88.9339 63.3185 89.0144 63.2463 89.1093 63.1985C89.2041 63.1508 89.31 63.129 89.416 63.1355C89.4961 63.1291 89.5766 63.1405 89.6517 63.1689C89.7269 63.1972 89.7948 63.2419 89.8506 63.2997C89.9065 63.3574 89.9488 63.4268 89.9746 63.5028C90.0005 63.5789 90.0091 63.6597 90 63.7395Z" fill="#263238"/>
<path d="M91.6001 63.6843V64.5643H91.4161V64.3443C91.3629 64.4231 91.2895 64.4861 91.2037 64.5269C91.1179 64.5677 91.0227 64.5848 90.9281 64.5763C90.6041 64.5763 90.4081 64.4083 90.4081 64.1763C90.4081 63.9443 90.5481 63.7763 90.9561 63.7763H91.4081V63.6923C91.4081 63.4483 91.2721 63.3163 91.0081 63.3163C90.8357 63.3137 90.668 63.3733 90.5361 63.4843L90.4481 63.3404C90.6129 63.2104 90.8182 63.1424 91.0281 63.1483C91.1025 63.138 91.1783 63.1444 91.2499 63.1672C91.3216 63.1899 91.3872 63.2284 91.442 63.2798C91.4969 63.3312 91.5395 63.3942 91.5669 63.4642C91.5942 63.5342 91.6056 63.6094 91.6001 63.6843ZM91.4081 64.1363V63.9043H90.9641C90.6881 63.9043 90.5961 64.0123 90.5961 64.1603C90.5961 64.3083 90.7281 64.4283 90.9561 64.4283C91.0533 64.4348 91.15 64.4099 91.2321 64.3574C91.3142 64.3048 91.3772 64.2273 91.4121 64.1363H91.4081Z" fill="#263238"/>
<path d="M94.4721 63.7395V64.5635H94.2801V63.7635C94.2801 63.4635 94.1281 63.3075 93.8801 63.3075C93.8135 63.304 93.747 63.3152 93.6853 63.3403C93.6235 63.3653 93.568 63.4036 93.5226 63.4524C93.4772 63.5012 93.4431 63.5594 93.4226 63.6228C93.4021 63.6862 93.3958 63.7534 93.4041 63.8195V64.5675H93.2001V63.7675C93.2001 63.4675 93.0481 63.3115 92.8001 63.3115C92.7335 63.308 92.667 63.3192 92.6053 63.3443C92.5435 63.3693 92.488 63.4076 92.4426 63.4564C92.3972 63.5052 92.3631 63.5634 92.3426 63.6268C92.3221 63.6902 92.3158 63.7573 92.3241 63.8235V64.5715H92.1321V63.1475H92.3161V63.4075C92.3716 63.3201 92.4494 63.2492 92.5416 63.2021C92.6337 63.1549 92.7368 63.1333 92.8401 63.1395C92.9449 63.1306 93.0498 63.1548 93.1402 63.2086C93.2306 63.2624 93.3019 63.3431 93.3441 63.4395C93.4023 63.3433 93.4855 63.2646 93.5848 63.2118C93.6841 63.159 93.7958 63.134 93.9081 63.1395C93.9865 63.1348 94.065 63.1474 94.138 63.1764C94.211 63.2054 94.2768 63.2502 94.3306 63.3074C94.3844 63.3647 94.425 63.433 94.4494 63.5077C94.4739 63.5824 94.4816 63.6615 94.4721 63.7395Z" fill="#263238"/>
<path d="M96.236 63.9122H95.036C95.0462 64.0516 95.1114 64.1813 95.2171 64.2728C95.3228 64.3643 95.4605 64.4101 95.6 64.4002C95.682 64.4024 95.7634 64.3867 95.8387 64.3543C95.914 64.3218 95.9814 64.2733 96.036 64.2122L96.144 64.3362C96.0419 64.4433 95.9105 64.518 95.7661 64.5508C95.6218 64.5836 95.471 64.573 95.3326 64.5205C95.1943 64.468 95.0745 64.3758 94.9883 64.2555C94.902 64.1351 94.8533 63.9921 94.848 63.8442C94.843 63.7503 94.8575 63.6565 94.8904 63.5685C94.9233 63.4805 94.974 63.4002 95.0393 63.3326C95.1046 63.2651 95.1831 63.2117 95.2699 63.1758C95.3568 63.14 95.4501 63.1224 95.544 63.1242C95.6376 63.1223 95.7306 63.1399 95.817 63.1758C95.9035 63.2118 95.9815 63.2653 96.0462 63.333C96.1109 63.4007 96.1608 63.4811 96.1928 63.5691C96.2247 63.6571 96.2381 63.7507 96.232 63.8442C96.232 63.8442 96.236 63.8922 96.236 63.9122ZM95.036 63.7682H96.044C96.044 63.6345 95.9909 63.5063 95.8964 63.4118C95.8019 63.3173 95.6737 63.2642 95.54 63.2642C95.4063 63.2642 95.2781 63.3173 95.1836 63.4118C95.0891 63.5063 95.036 63.6345 95.036 63.7682Z" fill="#263238"/>
<path d="M99.0201 63.8482C99.0201 64.3082 98.8481 64.5762 98.5681 64.5762C98.5286 64.5784 98.4891 64.5724 98.452 64.5587C98.4149 64.5449 98.381 64.5237 98.3525 64.4963C98.324 64.4689 98.3014 64.436 98.2862 64.3995C98.271 64.363 98.2635 64.3237 98.2641 64.2842C98.2084 64.3767 98.1289 64.4525 98.0339 64.5039C97.939 64.5552 97.832 64.5802 97.7241 64.5762C97.5395 64.5762 97.3624 64.5028 97.2319 64.3723C97.1014 64.2418 97.0281 64.0648 97.0281 63.8802C97.0281 63.6956 97.1014 63.5185 97.2319 63.388C97.3624 63.2575 97.5395 63.1842 97.7241 63.1842C97.8306 63.1796 97.9364 63.2035 98.0306 63.2534C98.1248 63.3034 98.204 63.3775 98.2601 63.4682V63.2002H98.4361V64.2242C98.4361 64.3762 98.5121 64.4322 98.6041 64.4322C98.7681 64.4322 98.8761 64.2242 98.8761 63.8602C98.8804 63.7157 98.8543 63.5719 98.7995 63.4381C98.7447 63.3043 98.6624 63.1836 98.5579 63.0836C98.4535 62.9837 98.3292 62.9068 98.1931 62.858C98.057 62.8092 97.9122 62.7895 97.7681 62.8002C97.6252 62.8002 97.4837 62.8283 97.3517 62.883C97.2197 62.9377 97.0998 63.0178 96.9987 63.1188C96.8977 63.2199 96.8176 63.3398 96.7629 63.4718C96.7082 63.6038 96.6801 63.7453 96.6801 63.8882C96.6801 64.031 96.7082 64.1725 96.7629 64.3045C96.8176 64.4365 96.8977 64.5565 96.9987 64.6575C97.0998 64.7585 97.2197 64.8387 97.3517 64.8934C97.4837 64.948 97.6252 64.9762 97.7681 64.9762C97.9482 64.9757 98.1259 64.9347 98.2881 64.8562L98.3321 64.9882C98.1557 65.0711 97.963 65.1135 97.7681 65.1122C97.4434 65.1122 97.1321 64.9832 96.9026 64.7537C96.673 64.5241 96.5441 64.2128 96.5441 63.8882C96.5441 63.5635 96.673 63.2522 96.9026 63.0227C97.1321 62.7931 97.4434 62.6642 97.7681 62.6642C97.9297 62.6525 98.092 62.6746 98.2447 62.729C98.3973 62.7835 98.537 62.8691 98.6547 62.9805C98.7725 63.0919 98.8658 63.2265 98.9287 63.3759C98.9916 63.5253 99.0227 63.6861 99.0201 63.8482ZM98.2601 63.8762C98.2664 63.8049 98.2578 63.733 98.2348 63.6652C98.2118 63.5974 98.175 63.5351 98.1266 63.4823C98.0783 63.4295 98.0195 63.3874 97.954 63.3585C97.8885 63.3297 97.8177 63.3148 97.7461 63.3148C97.6745 63.3148 97.6037 63.3297 97.5382 63.3585C97.4726 63.3874 97.4138 63.4295 97.3655 63.4823C97.3171 63.5351 97.2803 63.5974 97.2573 63.6652C97.2344 63.733 97.2258 63.8049 97.2321 63.8762C97.2258 63.9475 97.2344 64.0193 97.2573 64.0871C97.2803 64.1549 97.3171 64.2172 97.3655 64.27C97.4138 64.3228 97.4726 64.365 97.5382 64.3938C97.6037 64.4227 97.6745 64.4376 97.7461 64.4376C97.8177 64.4376 97.8885 64.4227 97.954 64.3938C98.0195 64.365 98.0783 64.3228 98.1266 64.27C98.175 64.2172 98.2118 64.1549 98.2348 64.0871C98.2578 64.0193 98.2664 63.9475 98.2601 63.8762Z" fill="#263238"/>
<path d="M100.66 63.912H99.4602C99.4642 63.9814 99.482 64.0492 99.5124 64.1118C99.5427 64.1743 99.5851 64.2302 99.6372 64.2763C99.6892 64.3223 99.7498 64.3577 99.8155 64.3803C99.8813 64.4029 99.9508 64.4123 100.02 64.408C100.102 64.4102 100.184 64.3946 100.259 64.3621C100.334 64.3296 100.402 64.2811 100.456 64.22L100.564 64.344C100.462 64.4511 100.331 64.5258 100.186 64.5586C100.042 64.5914 99.8912 64.5808 99.7528 64.5283C99.6144 64.4758 99.4946 64.3836 99.4084 64.2633C99.3222 64.143 99.2734 63.9999 99.2682 63.852C99.2632 63.7581 99.2776 63.6643 99.3105 63.5763C99.3434 63.4883 99.3941 63.408 99.4594 63.3405C99.5247 63.2729 99.6032 63.2195 99.6901 63.1837C99.7769 63.1478 99.8702 63.1302 99.9642 63.132C100.058 63.1301 100.151 63.1477 100.237 63.1837C100.324 63.2196 100.402 63.2731 100.466 63.3408C100.531 63.4085 100.581 63.4889 100.613 63.5769C100.645 63.6649 100.658 63.7586 100.652 63.852C100.652 63.852 100.66 63.892 100.66 63.912ZM99.4602 63.768H100.468C100.468 63.6343 100.415 63.5061 100.321 63.4116C100.226 63.3171 100.098 63.264 99.9642 63.264C99.8305 63.264 99.7023 63.3171 99.6078 63.4116C99.5133 63.5061 99.4602 63.6343 99.4602 63.768Z" fill="#263238"/>
<path d="M103.404 63.7401V64.5641H103.2V63.7641C103.2 63.4641 103.048 63.3081 102.8 63.3081C102.734 63.3047 102.667 63.3159 102.605 63.3409C102.543 63.366 102.488 63.4042 102.443 63.453C102.397 63.5018 102.363 63.56 102.343 63.6234C102.322 63.6869 102.316 63.754 102.324 63.8201V64.5681H102.132V63.7681C102.132 63.4681 101.98 63.3121 101.732 63.3121C101.666 63.3087 101.599 63.3199 101.537 63.3449C101.475 63.3699 101.42 63.4082 101.375 63.457C101.329 63.5058 101.295 63.564 101.275 63.6274C101.254 63.6909 101.248 63.758 101.256 63.8241V64.5721H101.064V63.1481H101.248V63.4081C101.303 63.3211 101.38 63.2503 101.472 63.2032C101.563 63.1561 101.665 63.1343 101.768 63.1401C101.873 63.1322 101.978 63.1567 102.069 63.2104C102.16 63.264 102.232 63.3442 102.276 63.4401C102.333 63.3437 102.415 63.2647 102.514 63.2118C102.613 63.1589 102.724 63.1341 102.836 63.1401C102.915 63.1348 102.994 63.147 103.067 63.1757C103.141 63.2045 103.207 63.2491 103.261 63.3064C103.316 63.3638 103.356 63.4323 103.381 63.5073C103.406 63.5823 103.414 63.6618 103.404 63.7401Z" fill="#263238"/>
<path d="M104.996 63.684V64.5639H104.8V64.3439C104.746 64.4224 104.673 64.4852 104.587 64.5259C104.502 64.5667 104.407 64.584 104.312 64.5759C103.988 64.5759 103.792 64.4079 103.792 64.1759C103.792 63.944 103.932 63.776 104.34 63.776H104.8V63.6919C104.8 63.4479 104.664 63.3159 104.4 63.3159C104.228 63.3133 104.06 63.3729 103.928 63.484L103.84 63.34C104.005 63.21 104.21 63.142 104.42 63.1479C104.495 63.1369 104.571 63.1429 104.643 63.1653C104.715 63.1878 104.781 63.2262 104.837 63.2776C104.892 63.3291 104.935 63.3923 104.963 63.4627C104.99 63.533 105.002 63.6086 104.996 63.684ZM104.804 64.1359V63.9039H104.36C104.084 63.9039 103.992 64.0119 103.992 64.1599C103.992 64.3079 104.124 64.428 104.352 64.428C104.448 64.4326 104.543 64.4069 104.623 64.3545C104.704 64.3021 104.766 64.2256 104.8 64.1359H104.804Z" fill="#263238"/>
<path d="M105.476 62.6918C105.476 62.6641 105.484 62.637 105.5 62.614C105.515 62.591 105.537 62.573 105.563 62.5624C105.588 62.5518 105.616 62.549 105.643 62.5544C105.671 62.5598 105.695 62.5732 105.715 62.5928C105.735 62.6123 105.748 62.6373 105.753 62.6644C105.759 62.6916 105.756 62.7198 105.745 62.7453C105.735 62.7709 105.717 62.7928 105.694 62.8082C105.671 62.8235 105.644 62.8318 105.616 62.8318C105.579 62.8318 105.543 62.817 105.517 62.7908C105.491 62.7645 105.476 62.7289 105.476 62.6918ZM105.516 63.1398H105.708V64.5638H105.516V63.1398Z" fill="#263238"/>
<path d="M106.244 62.5557H106.436V64.5557H106.244V62.5557Z" fill="#263238"/>
<path d="M106.848 64.4282C106.848 64.4092 106.851 64.3902 106.858 64.3725C106.865 64.3548 106.876 64.3387 106.889 64.3252C106.903 64.3117 106.919 64.3011 106.936 64.2941C106.954 64.287 106.973 64.2837 106.992 64.2842C107.03 64.2842 107.067 64.2994 107.094 64.3264C107.121 64.3534 107.136 64.39 107.136 64.4282C107.136 64.4668 107.121 64.5039 107.094 64.5315C107.067 64.5591 107.031 64.5752 106.992 64.5762C106.973 64.5762 106.954 64.5724 106.936 64.5649C106.918 64.5574 106.902 64.5465 106.889 64.5327C106.875 64.5189 106.865 64.5025 106.858 64.4846C106.851 64.4666 106.848 64.4475 106.848 64.4282Z" fill="#263238"/>
<path d="M107.36 63.8522C107.357 63.7558 107.374 63.6599 107.41 63.5705C107.446 63.481 107.5 63.4 107.569 63.3324C107.638 63.2648 107.72 63.2121 107.81 63.1777C107.9 63.1432 107.996 63.1277 108.092 63.1322C108.202 63.125 108.312 63.1471 108.41 63.1963C108.508 63.2455 108.592 63.32 108.652 63.4122L108.508 63.5082C108.463 63.4439 108.403 63.3914 108.334 63.3552C108.264 63.319 108.187 63.3001 108.108 63.3002C107.969 63.312 107.84 63.3755 107.746 63.4781C107.651 63.5807 107.599 63.7149 107.599 63.8542C107.599 63.9935 107.651 64.1277 107.746 64.2303C107.84 64.3329 107.969 64.3964 108.108 64.4082C108.187 64.4089 108.264 64.3903 108.334 64.3541C108.404 64.3178 108.464 64.265 108.508 64.2002L108.652 64.2962C108.591 64.3878 108.508 64.4618 108.409 64.511C108.311 64.5601 108.202 64.5826 108.092 64.5762C107.995 64.5807 107.899 64.5651 107.809 64.5304C107.718 64.4957 107.636 64.4427 107.567 64.3746C107.499 64.3066 107.445 64.2251 107.409 64.1351C107.373 64.0452 107.357 63.9489 107.36 63.8522Z" fill="#263238"/>
<path d="M108.86 63.8519C108.86 63.7087 108.903 63.5688 108.982 63.4497C109.062 63.3306 109.175 63.2378 109.307 63.183C109.439 63.1282 109.585 63.1139 109.725 63.1418C109.866 63.1698 109.995 63.2387 110.096 63.34C110.197 63.4412 110.266 63.5702 110.294 63.7107C110.322 63.8511 110.308 63.9967 110.253 64.129C110.198 64.2613 110.105 64.3744 109.986 64.4539C109.867 64.5335 109.727 64.5759 109.584 64.5759C109.488 64.5793 109.393 64.5628 109.303 64.5276C109.214 64.4924 109.133 64.4392 109.065 64.3713C108.997 64.3034 108.944 64.2223 108.908 64.1329C108.873 64.0435 108.857 63.9479 108.86 63.8519ZM110.112 63.8519C110.109 63.7466 110.074 63.6446 110.013 63.5589C109.952 63.4732 109.867 63.4076 109.768 63.3705C109.669 63.3333 109.562 63.3263 109.459 63.3502C109.357 63.3742 109.264 63.4281 109.192 63.5051C109.12 63.5821 109.072 63.6787 109.055 63.7827C109.038 63.8867 109.053 63.9934 109.096 64.0892C109.14 64.1851 109.211 64.2658 109.301 64.3211C109.391 64.3764 109.495 64.4038 109.6 64.3999C109.67 64.399 109.739 64.3838 109.803 64.3555C109.867 64.3271 109.925 64.2862 109.973 64.235C110.021 64.1838 110.058 64.1235 110.082 64.0577C110.106 63.9918 110.116 63.9219 110.112 63.8519Z" fill="#263238"/>
<path d="M113.044 63.7401V64.5641H112.852V63.7641C112.852 63.4641 112.7 63.3081 112.452 63.3081C112.385 63.3047 112.319 63.3159 112.257 63.3409C112.195 63.366 112.14 63.4042 112.095 63.453C112.049 63.5018 112.015 63.56 111.995 63.6234C111.974 63.6869 111.968 63.754 111.976 63.8201V64.5681H111.784V63.7681C111.784 63.4681 111.632 63.3121 111.384 63.3121C111.317 63.3087 111.251 63.3199 111.189 63.3449C111.127 63.3699 111.072 63.4082 111.027 63.457C110.981 63.5058 110.947 63.564 110.927 63.6274C110.906 63.6909 110.9 63.758 110.908 63.8241V64.5721H110.716V63.1481H110.9V63.4081C110.955 63.3211 111.032 63.2503 111.124 63.2032C111.215 63.1561 111.317 63.1343 111.42 63.1401C111.525 63.1322 111.63 63.1567 111.721 63.2104C111.812 63.264 111.884 63.3442 111.928 63.4401C111.985 63.344 112.068 63.2652 112.166 63.2124C112.265 63.1595 112.376 63.1345 112.488 63.1401C112.566 63.1367 112.643 63.1502 112.715 63.1797C112.787 63.2093 112.852 63.2542 112.905 63.3113C112.958 63.3684 112.998 63.4363 113.022 63.5104C113.046 63.5844 113.053 63.6628 113.044 63.7401Z" fill="#263238"/>
<path d="M81.3559 75.8243L81.6919 76.0163L81.6319 76.1283L81.2919 75.9323V76.3323H81.1679V75.9323L80.8279 76.1283L80.7639 76.0163L81.1039 75.8243L80.7639 75.6363L80.8279 75.5203L81.1679 75.7203V75.3203H81.2919V75.7203L81.6319 75.5203L81.6919 75.6363L81.3559 75.8243Z" fill="#263238"/>
<path d="M82.456 75.8243L82.792 76.0163L82.728 76.1283L82.392 75.9323V76.3323H82.264V75.9323L81.928 76.1283L81.86 76.0163L82.2 75.8243L81.86 75.6363L81.928 75.5203L82.264 75.7203V75.3203H82.4V75.7203L82.736 75.5203L82.8 75.6363L82.456 75.8243Z" fill="#263238"/>
<path d="M83.552 75.8243L83.888 76.0163L83.824 76.1283L83.488 75.9323V76.3323H83.364V75.9323L83.028 76.1283L82.964 76.0163L83.3 75.8243L82.964 75.6363L83.028 75.5203L83.364 75.7203V75.3203H83.488V75.7203L83.824 75.5203L83.888 75.6363L83.552 75.8243Z" fill="#263238"/>
<path d="M84.6479 75.8243L84.9839 76.0163L84.9239 76.1283L84.5839 75.9323V76.3323H84.4599V75.9323L84.1199 76.1283L84.0559 76.0163L84.3959 75.8243L84.0559 75.6363L84.1199 75.5203L84.4599 75.7203V75.3203H84.5839V75.7203L84.9239 75.5203L84.9839 75.6363L84.6479 75.8243Z" fill="#263238"/>
<path d="M85.7481 75.8243L86.0841 76.0163L86.0201 76.1283L85.6841 75.9323V76.3323H85.5561V75.9323L85.2201 76.1283L85.1521 76.0163L85.4921 75.8243L85.1521 75.6363L85.2201 75.5203L85.5561 75.7203V75.3203H85.6841V75.7203L86.0201 75.5203L86.0841 75.6363L85.7481 75.8243Z" fill="#263238"/>
<path d="M86.844 75.8243L87.18 76.0163L87.116 76.1283L86.78 75.9323V76.3323H86.656V75.9323L86.32 76.1283L86.256 76.0163L86.592 75.8243L86.256 75.6363L86.32 75.5203L86.656 75.7203V75.3203H86.8V75.7203L87.136 75.5203L87.2 75.6363L86.844 75.8243Z" fill="#263238"/>
<path d="M87.9399 75.8243L88.2759 76.0163L88.2159 76.1283L87.8759 75.9323V76.3323H87.7519V75.9323L87.4119 76.1283L87.3479 76.0163L87.6879 75.8243L87.3479 75.6363L87.4119 75.5203L87.7519 75.7203V75.3203H87.8759V75.7203L88.2159 75.5203L88.2759 75.6363L87.9399 75.8243Z" fill="#263238"/>
<path d="M89.0401 75.8243L89.3761 76.0163L89.3121 76.1283L88.9721 75.9323V76.3323H88.8481V75.9323L88.5121 76.1283L88.4441 76.0163L88.7841 75.8243L88.4441 75.6363L88.5121 75.5203L88.8481 75.7203V75.3203H88.9721V75.7203L89.3121 75.5203L89.3761 75.6363L89.0401 75.8243Z" fill="#263238"/>
<path d="M90.136 75.8243L90.472 76.0163L90.408 76.1283L90.072 75.9323V76.3323H89.948V75.9323L89.612 76.1283L89.548 76.0163L89.884 75.8243L89.548 75.6363L89.612 75.5203L89.948 75.7203V75.3203H90.072V75.7203L90.408 75.5203L90.472 75.6363L90.136 75.8243Z" fill="#263238"/>
<path d="M91.232 75.8243L91.568 76.0163L91.508 76.1283L91.168 75.9323V76.3323H91.044V75.9323L90.704 76.1283L90.64 76.0163L90.976 75.8243L90.64 75.6363L90.704 75.5203L91.044 75.7203V75.3203H91.168V75.7203L91.508 75.5203L91.568 75.6363L91.232 75.8243Z" fill="#263238"/>
<path d="M92.3321 75.8243L92.6641 76.0163L92.6041 76.1283L92.2641 75.9323V76.3323H92.1401V75.9323L91.8041 76.1283L91.7361 76.0163L92.0761 75.8243L91.7361 75.6363L91.8041 75.5203L92.1401 75.7203V75.3203H92.2641V75.7203L92.6041 75.5203L92.6641 75.6363L92.3321 75.8243Z" fill="#263238"/>
<path d="M81.176 70.3998C81.176 70.7998 80.884 71.0478 80.404 71.0478H79.896V71.6438H79.692V69.7598H80.4C80.884 69.7598 81.176 69.9998 81.176 70.3998ZM80.976 70.3998C80.976 70.0958 80.776 69.9238 80.396 69.9238H79.896V70.8718H80.4C80.776 70.8798 80.976 70.7078 80.976 70.3998Z" fill="#263238"/>
<path d="M82.6282 70.7722V71.6522H82.4442V71.4322C82.39 71.511 82.3159 71.5739 82.2295 71.6147C82.1431 71.6555 82.0474 71.6726 81.9522 71.6642C81.6322 71.6642 81.4362 71.5002 81.4362 71.2642C81.4362 71.0282 81.5762 70.8642 81.9842 70.8642H82.4362V70.7802C82.4362 70.5362 82.2962 70.4042 82.0362 70.4042C81.8637 70.4016 81.6961 70.4612 81.5642 70.5722L81.4762 70.4282C81.641 70.2983 81.8463 70.2303 82.0562 70.2362C82.1306 70.2259 82.2064 70.2323 82.278 70.2551C82.3497 70.2778 82.4153 70.3163 82.4701 70.3677C82.525 70.4191 82.5676 70.4821 82.595 70.5521C82.6223 70.6221 82.6337 70.6973 82.6282 70.7722ZM82.4362 71.2242V70.9922H82.0002C81.7242 70.9922 81.6362 71.1002 81.6362 71.2482C81.6362 71.3962 81.7682 71.5162 81.9962 71.5162C82.0907 71.5192 82.1839 71.4927 82.2627 71.4404C82.3416 71.3881 82.4022 71.3125 82.4362 71.2242Z" fill="#263238"/>
<path d="M82.9521 71.4917L83.0361 71.3397C83.1849 71.4442 83.3624 71.5001 83.5441 71.4997C83.8122 71.4997 83.9242 71.4077 83.9242 71.2637C83.9242 70.8957 83.0041 71.1877 83.0041 70.6237C83.0041 70.3917 83.2041 70.2237 83.5642 70.2237C83.741 70.2214 83.9151 70.267 84.0682 70.3557L83.9842 70.5077C83.8593 70.4266 83.713 70.3848 83.5642 70.3877C83.3081 70.3877 83.1961 70.4877 83.1961 70.6237C83.1961 71.0237 84.1161 70.7197 84.1161 71.2637C84.1161 71.5117 83.9002 71.6637 83.5282 71.6637C83.3226 71.6704 83.1204 71.61 82.9521 71.4917Z" fill="#263238"/>
<path d="M84.2721 71.4917L84.3601 71.3398C84.5071 71.4447 84.6835 71.5007 84.8641 71.4997C85.1361 71.4997 85.2641 71.4077 85.2641 71.2638C85.2641 70.8958 84.3441 71.1877 84.3441 70.6238C84.3441 70.3918 84.5441 70.2238 84.9081 70.2238C85.0837 70.221 85.2567 70.2667 85.4081 70.3558L85.3241 70.5078C85.2051 70.4302 85.0662 70.3885 84.9241 70.3878C84.6641 70.3878 84.5521 70.4878 84.5521 70.6238C84.5521 71.0237 85.4721 70.7198 85.4721 71.2638C85.4721 71.5117 85.2561 71.6637 84.8881 71.6637C84.6691 71.6792 84.4515 71.6184 84.2721 71.4917Z" fill="#263238"/>
<path d="M87.8521 70.2314L87.3121 71.6514H87.1321L86.6841 70.4874L86.2361 71.6514H86.0521L85.5201 70.2314H85.7041L86.1481 71.4314L86.6041 70.2314H86.7721L87.2241 71.4314L87.6761 70.2314H87.8521Z" fill="#263238"/>
<path d="M87.9562 70.9398C87.9562 70.7966 87.9987 70.6566 88.0783 70.5376C88.1578 70.4185 88.2709 70.3257 88.4032 70.2709C88.5355 70.2161 88.681 70.2018 88.8215 70.2297C88.9619 70.2577 89.0909 70.3266 89.1922 70.4279C89.2934 70.5291 89.3624 70.6581 89.3903 70.7986C89.4183 70.939 89.4039 71.0846 89.3491 71.2169C89.2943 71.3492 89.2015 71.4622 89.0825 71.5418C88.9634 71.6214 88.8234 71.6638 88.6802 71.6638C88.5843 71.6672 88.4886 71.6507 88.3993 71.6155C88.3099 71.5803 88.2287 71.5271 88.1608 71.4592C88.0929 71.3913 88.0397 71.3102 88.0045 71.2208C87.9693 71.1314 87.9529 71.0358 87.9562 70.9398ZM89.2082 70.9398C89.2082 70.7998 89.1526 70.6655 89.0536 70.5665C88.9546 70.4675 88.8203 70.4118 88.6802 70.4118C88.5402 70.4118 88.4059 70.4675 88.3069 70.5665C88.2079 70.6655 88.1522 70.7998 88.1522 70.9398C88.1522 71.0799 88.2079 71.2142 88.3069 71.3132C88.4059 71.4122 88.5402 71.4678 88.6802 71.4678C88.8203 71.4678 88.9546 71.4122 89.0536 71.3132C89.1526 71.2142 89.2082 71.0799 89.2082 70.9398Z" fill="#263238"/>
<path d="M90.5121 70.2203V70.4003H90.4641C90.3966 70.3973 90.3293 70.4092 90.2669 70.4351C90.2045 70.4611 90.1486 70.5005 90.1031 70.5505C90.0577 70.6006 90.0238 70.66 90.0039 70.7246C89.9841 70.7892 89.9787 70.8574 89.9881 70.9243V71.6483H89.7961V70.2283H90.0001V70.5043C90.0484 70.4121 90.1225 70.336 90.2136 70.2855C90.3046 70.235 90.4084 70.2124 90.5121 70.2203Z" fill="#263238"/>
<path d="M92.1402 69.6476V71.6476H91.9561V71.3676C91.8992 71.4607 91.8183 71.5369 91.7219 71.5882C91.6256 71.6396 91.5172 71.6642 91.4081 71.6596C91.2259 71.646 91.0556 71.564 90.9313 71.4301C90.807 71.2962 90.7379 71.1203 90.7379 70.9376C90.7379 70.7549 90.807 70.5789 90.9313 70.445C91.0556 70.3111 91.2259 70.2291 91.4081 70.2156C91.5147 70.2115 91.6205 70.2352 91.7151 70.2843C91.8098 70.3333 91.8901 70.4062 91.9481 70.4956V69.6436L92.1402 69.6476ZM91.9522 70.9396C91.9467 70.8365 91.9111 70.7373 91.8499 70.6542C91.7886 70.5712 91.7044 70.5079 91.6076 70.4722C91.5107 70.4365 91.4056 70.4299 91.305 70.4533C91.2045 70.4768 91.1131 70.5291 91.042 70.604C90.971 70.6788 90.9234 70.7728 90.9052 70.8744C90.887 70.976 90.8989 71.0807 90.9396 71.1756C90.9802 71.2704 91.0478 71.3513 91.1339 71.4082C91.22 71.465 91.3209 71.4954 91.4241 71.4956C91.4962 71.4969 91.5678 71.4831 91.6343 71.4553C91.7008 71.4274 91.7608 71.386 91.8105 71.3337C91.8601 71.2814 91.8984 71.2194 91.9227 71.1515C91.9471 71.0837 91.9572 71.0115 91.9522 70.9396Z" fill="#263238"/>
<path d="M94.9841 86V87.896H94.8001V86.176H94.3521V86H94.9841Z" fill="#263238"/>
<path d="M96.7281 87.7118V87.8878H95.4001V87.7478L96.2001 86.9758C96.4121 86.7678 96.4561 86.6398 96.4561 86.5118C96.4561 86.2918 96.3001 86.1558 96.0121 86.1558C95.9156 86.1496 95.819 86.1655 95.7296 86.2022C95.6402 86.2389 95.5603 86.2956 95.4961 86.3678L95.3561 86.2478C95.4414 86.156 95.5458 86.0841 95.6619 86.0371C95.778 85.9901 95.903 85.9692 96.0281 85.9758C96.4281 85.9758 96.6561 86.1718 96.6561 86.4878C96.6499 86.6031 96.6188 86.7158 96.565 86.818C96.5111 86.9202 96.4357 87.0095 96.3441 87.0798L95.7001 87.7118H96.7281Z" fill="#263238"/>
<path d="M98.2241 87.344C98.2241 87.66 97.9921 87.904 97.5361 87.904C97.2867 87.9118 97.0436 87.8246 96.8561 87.66L96.9481 87.504C97.1081 87.6509 97.3189 87.7298 97.5361 87.724C97.8521 87.724 98.0241 87.58 98.0241 87.344C98.0241 87.108 97.8641 86.968 97.5121 86.968H97.3761V86.824L97.9001 86.168H96.9321V86H98.1321V86.14L97.6001 86.8C98.0201 86.828 98.2241 87.04 98.2241 87.344Z" fill="#263238"/>
<path d="M100.104 87.3882H99.724V87.8882H99.532V87.3882H98.464V87.2482L99.468 85.9922H99.684L98.716 87.2002H99.536V86.7602H99.724V87.2002H100.104V87.3882Z" fill="#263238"/>
<path d="M102.276 87.3277C102.276 87.6517 102.052 87.9037 101.588 87.9037C101.339 87.9111 101.096 87.8239 100.908 87.6597L101.004 87.5037C101.081 87.5771 101.172 87.6344 101.272 87.6722C101.371 87.71 101.478 87.7275 101.584 87.7237C101.908 87.7237 102.076 87.5677 102.076 87.3237C102.076 87.0797 101.924 86.9237 101.444 86.9237H101.044L101.144 85.9717H102.18V86.1477H101.312L101.248 86.7477H101.492C102.06 86.7677 102.276 86.9957 102.276 87.3277Z" fill="#263238"/>
<path d="M103.944 87.3202C103.943 87.4022 103.926 87.4832 103.892 87.558C103.858 87.6328 103.809 87.6997 103.749 87.7546C103.688 87.8096 103.616 87.8512 103.538 87.8769C103.46 87.9027 103.378 87.912 103.296 87.9042C102.792 87.9042 102.52 87.5522 102.52 86.9562C102.52 86.3602 102.872 85.9762 103.384 85.9762C103.541 85.9702 103.697 86.0061 103.836 86.0802L103.756 86.2362C103.644 86.1723 103.517 86.1417 103.388 86.1482C102.988 86.1482 102.716 86.4082 102.716 86.9242C102.716 86.9682 102.716 87.0202 102.716 87.0762C102.771 86.9721 102.855 86.8862 102.958 86.8287C103.061 86.7712 103.179 86.7447 103.296 86.7522C103.377 86.7421 103.459 86.7491 103.537 86.773C103.615 86.7968 103.687 86.8369 103.748 86.8906C103.809 86.9442 103.858 87.0103 103.892 87.0843C103.926 87.1584 103.944 87.2388 103.944 87.3202ZM103.752 87.3202C103.752 87.0682 103.568 86.9202 103.276 86.9202C103.218 86.913 103.158 86.9178 103.102 86.9342C103.045 86.9506 102.992 86.9784 102.947 87.0158C102.901 87.0532 102.863 87.0994 102.836 87.1518C102.809 87.2041 102.793 87.2614 102.788 87.3202C102.788 87.5282 102.96 87.7202 103.288 87.7202C103.345 87.7295 103.403 87.7263 103.459 87.7108C103.515 87.6954 103.566 87.6682 103.61 87.6309C103.654 87.5937 103.69 87.5474 103.714 87.4951C103.739 87.4429 103.752 87.3859 103.752 87.3282V87.3202Z" fill="#263238"/>
<path d="M105.48 86V86.14L104.68 87.896H104.468L105.248 86.176H104.276V86.528H104.084V86H105.48Z" fill="#263238"/>
<path d="M107.14 87.3602C107.14 87.6962 106.856 87.9042 106.404 87.9042C105.952 87.9042 105.676 87.6962 105.676 87.3602C105.675 87.2525 105.71 87.1476 105.776 87.0626C105.842 86.9776 105.935 86.9175 106.04 86.8922C105.953 86.8687 105.876 86.8164 105.822 86.7438C105.769 86.6712 105.741 86.5825 105.744 86.4922C105.744 86.1842 106.004 85.9922 106.404 85.9922C106.804 85.9922 107.072 86.1842 107.072 86.4922C107.071 86.5826 107.04 86.6701 106.986 86.7421C106.931 86.814 106.855 86.8666 106.768 86.8922C106.874 86.9166 106.968 86.9762 107.036 87.0612C107.103 87.1462 107.14 87.2516 107.14 87.3602ZM106.94 87.3602C106.94 87.1282 106.74 86.9802 106.404 86.9802C106.068 86.9802 105.872 87.1282 105.872 87.3602C105.872 87.5922 106.068 87.7602 106.404 87.7602C106.74 87.7602 106.94 87.6002 106.94 87.3562V87.3602ZM106.4 86.8242C106.696 86.8242 106.872 86.6922 106.872 86.4842C106.872 86.2762 106.684 86.1442 106.4 86.1442C106.116 86.1442 105.932 86.2722 105.932 86.4842C105.932 86.6962 106.108 86.8242 106.4 86.8242Z" fill="#263238"/>
<path d="M109.484 86.9243C109.484 87.5683 109.132 87.9043 108.616 87.9043C108.46 87.9098 108.306 87.8739 108.168 87.8003L108.248 87.6443C108.36 87.7083 108.487 87.7388 108.616 87.7323C109.016 87.7323 109.284 87.4683 109.284 86.9563C109.288 86.9057 109.288 86.8549 109.284 86.8043C109.23 86.9088 109.147 86.9951 109.045 87.0527C108.942 87.1103 108.825 87.1366 108.708 87.1283C108.628 87.1373 108.547 87.1293 108.47 87.1049C108.393 87.0805 108.322 87.0402 108.262 86.9867C108.201 86.9331 108.153 86.8675 108.12 86.794C108.086 86.7206 108.069 86.641 108.068 86.5603C108.069 86.4783 108.086 86.3973 108.12 86.3225C108.154 86.2477 108.203 86.1808 108.264 86.1259C108.325 86.071 108.396 86.0293 108.474 86.0036C108.552 85.9778 108.634 85.9685 108.716 85.9763C109.2 85.9763 109.484 86.3283 109.484 86.9243ZM109.216 86.5483C109.216 86.3403 109.044 86.1483 108.716 86.1483C108.658 86.1389 108.599 86.1423 108.543 86.1582C108.487 86.1741 108.435 86.2021 108.391 86.2402C108.347 86.2783 108.311 86.3256 108.287 86.3789C108.263 86.4321 108.251 86.4899 108.252 86.5483C108.252 86.8003 108.436 86.9483 108.728 86.9483C108.843 86.9572 108.958 86.9201 109.046 86.8453C109.135 86.7704 109.19 86.6637 109.2 86.5483H109.216Z" fill="#263238"/>
<path d="M110.284 86V87.896H110.088V86.176H109.64V86H110.284Z" fill="#263238"/>
<path d="M110.732 86.9396C110.732 86.3356 111.052 85.9756 111.488 85.9756C111.924 85.9756 112.244 86.3356 112.244 86.9396C112.244 87.5436 111.928 87.9036 111.488 87.9036C111.048 87.9036 110.732 87.5436 110.732 86.9396ZM112.044 86.9396C112.044 86.4356 111.82 86.1396 111.488 86.1396C111.156 86.1396 110.932 86.4196 110.932 86.9396C110.932 87.4596 111.16 87.7396 111.488 87.7396C111.816 87.7396 112.044 87.4436 112.044 86.9396Z" fill="#263238"/>
<path d="M113.044 86V87.896H112.848V86.176H112.4V86H113.044Z" fill="#263238"/>
<path d="M114.728 86V87.896H114.532V86.176H114.084V86H114.728Z" fill="#263238"/>
<path d="M115.7 86V87.896H115.508V86.176H115.06V86H115.7Z" fill="#263238"/>
<path d="M117.444 87.7116V87.8876H116.116V87.7476L116.916 86.9756C117.128 86.7676 117.172 86.6396 117.172 86.5116C117.172 86.2916 117.016 86.1556 116.728 86.1556C116.632 86.1494 116.535 86.1653 116.446 86.202C116.356 86.2388 116.276 86.2954 116.212 86.3676L116.072 86.2476C116.158 86.1563 116.262 86.0847 116.378 86.0377C116.494 85.9908 116.619 85.9696 116.744 85.9756C117.144 85.9756 117.372 86.1716 117.372 86.4876C117.366 86.603 117.335 86.7156 117.281 86.8178C117.227 86.92 117.152 87.0093 117.06 87.0796L116.4 87.7116H117.444Z" fill="#263238"/>
<path d="M118.212 86V87.896H118V86.176H117.556V86H118.212Z" fill="#263238"/>
<path d="M86.3161 85.5596V85.2716C86.3161 85.1379 86.263 85.0097 86.1685 84.9152C86.074 84.8207 85.9458 84.7676 85.8121 84.7676H80.7041C80.5704 84.7676 80.4422 84.8207 80.3477 84.9152C80.2532 85.0097 80.2001 85.1379 80.2001 85.2716V85.5596H86.3161Z" fill="#263238"/>
<path d="M80.2001 85.9561V88.0761C80.2001 88.2097 80.2532 88.3379 80.3477 88.4324C80.4422 88.5269 80.5704 88.58 80.7041 88.58H85.8121C85.9458 88.58 86.074 88.5269 86.1685 88.4324C86.263 88.3379 86.3161 88.2097 86.3161 88.0761V85.9561H80.2001Z" fill="#263238"/>
<path d="M80.276 97.1202C80.276 96.5162 80.592 96.1602 81.032 96.1602C81.472 96.1602 81.788 96.5162 81.788 97.1202C81.788 97.7242 81.468 98.0842 81.032 98.0842C80.596 98.0842 80.276 97.7242 80.276 97.1202ZM81.588 97.1202C81.588 96.6162 81.36 96.3202 81.032 96.3202C80.704 96.3202 80.476 96.6002 80.476 97.1202C80.476 97.6402 80.7 97.9202 81.032 97.9202C81.364 97.9202 81.6 97.6282 81.6 97.1202H81.588Z" fill="#263238"/>
<path d="M83.5201 97.5398C83.5201 97.8758 83.2361 98.0838 82.7841 98.0838C82.3321 98.0838 82.0561 97.8758 82.0561 97.5398C82.0543 97.4324 82.0895 97.3277 82.1558 97.2432C82.2221 97.1587 82.3154 97.0996 82.4201 97.0758C82.3352 97.0483 82.2611 96.9949 82.208 96.9232C82.1549 96.8515 82.1256 96.765 82.1241 96.6758C82.1241 96.3678 82.3841 96.1758 82.7841 96.1758C83.1841 96.1758 83.4521 96.3678 83.4521 96.6758C83.4497 96.7653 83.4196 96.8519 83.3658 96.9236C83.3121 96.9953 83.2374 97.0484 83.1521 97.0758C83.2572 97.0995 83.351 97.1585 83.4179 97.2429C83.4849 97.3273 83.5209 97.4321 83.5201 97.5398ZM83.3201 97.5398C83.3201 97.3078 83.1201 97.1638 82.7841 97.1638C82.4481 97.1638 82.2521 97.3078 82.2521 97.5398C82.2521 97.7718 82.4521 97.9398 82.7841 97.9398C83.1161 97.9398 83.3201 97.7718 83.3201 97.5358V97.5398ZM82.8001 97.0038C83.0961 97.0038 83.2721 96.8718 83.2721 96.6678C83.2721 96.4638 83.0841 96.3238 82.8001 96.3238C82.5161 96.3238 82.3321 96.4518 82.3321 96.6638C82.3321 96.8758 82.4921 97.0038 82.8001 97.0038Z" fill="#263238"/>
<path d="M84.4761 95.792H84.6521L83.7561 98.336H83.6001L84.4761 95.792Z" fill="#263238"/>
<path d="M86.0002 97.8918V98.0678H84.6722V97.9278L85.4722 97.1598C85.6842 96.9478 85.7242 96.8198 85.7242 96.6918C85.7242 96.4718 85.5722 96.3358 85.2842 96.3358C85.1871 96.3296 85.0899 96.3454 84.9999 96.3821C84.9098 96.4188 84.8292 96.4755 84.7642 96.5478L84.6282 96.4278C84.7135 96.3363 84.818 96.2649 84.9342 96.2185C85.0503 96.1722 85.1753 96.1521 85.3002 96.1598C85.7002 96.1598 85.9242 96.3518 85.9242 96.6678C85.9201 96.7832 85.8903 96.8962 85.8371 96.9986C85.7838 97.101 85.7083 97.1902 85.6162 97.2598L84.9722 97.8918H86.0002Z" fill="#263238"/>
<path d="M87.5161 97.5083C87.5161 97.8323 87.2921 98.0843 86.8281 98.0843C86.5787 98.0917 86.3358 98.0045 86.1481 97.8403L86.2441 97.6843C86.3212 97.7577 86.4123 97.815 86.5119 97.8528C86.6115 97.8905 86.7176 97.908 86.8241 97.9043C87.1481 97.9043 87.3161 97.7483 87.3161 97.5043C87.3161 97.2603 87.1681 97.1043 86.6841 97.1043H86.2841L86.3801 96.1562H87.4161V96.3283H86.5481L86.4841 96.9323H86.7281C87.3001 96.9523 87.5161 97.1763 87.5161 97.5083Z" fill="#263238"/>
<path d="M81.1601 94.9557V95.0637H80.3281V93.8877H81.1281V93.9997H80.4481V94.3997H81.0561V94.5077H80.4481V94.9437L81.1601 94.9557Z" fill="#263238"/>
<path d="M82.1721 95.0637L81.7961 94.5437L81.3961 95.0637H81.2521L81.7001 94.4597L81.3001 93.8877H81.4401L81.7961 94.3677L82.1481 93.8877H82.2801L81.8801 94.4557L82.3281 95.0637H82.1721Z" fill="#263238"/>
<path d="M83.42 94.2917C83.42 94.5397 83.236 94.6917 82.94 94.6917H82.624V95.0637H82.5V93.8877H82.94C83.236 93.8877 83.42 94.0397 83.42 94.2917ZM83.296 94.2917C83.296 94.1037 83.172 93.9957 82.936 93.9957H82.624V94.5837H82.936C83.172 94.5837 83.296 94.4757 83.296 94.2917Z" fill="#263238"/>
<path d="M84.1481 93.8877H84.6241C84.78 93.8877 84.9296 93.9496 85.0398 94.0599C85.1501 94.1702 85.2121 94.3197 85.2121 94.4757C85.2121 94.6316 85.1501 94.7812 85.0398 94.8915C84.9296 95.0017 84.78 95.0637 84.6241 95.0637H84.1481V93.8877ZM84.6161 94.9557C84.7434 94.9557 84.8655 94.9051 84.9555 94.8151C85.0455 94.7251 85.0961 94.603 85.0961 94.4757C85.0961 94.3484 85.0455 94.2263 84.9555 94.1363C84.8655 94.0463 84.7434 93.9957 84.6161 93.9957H84.2721V94.9557H84.6161Z" fill="#263238"/>
<path d="M86.1762 94.5164V95.0643H86.0602V94.9243C86.0277 94.9743 85.9823 95.0145 85.9287 95.0405C85.8751 95.0666 85.8155 95.0776 85.7562 95.0723C85.5602 95.0723 85.4362 94.9683 85.4362 94.8163C85.4362 94.6643 85.5242 94.5644 85.7762 94.5644H86.0562V94.5124C86.0596 94.4795 86.0555 94.4462 86.044 94.4152C86.0326 94.3841 86.0142 94.3561 85.9902 94.3333C85.9663 94.3105 85.9374 94.2935 85.9058 94.2836C85.8743 94.2738 85.8408 94.2713 85.8082 94.2764C85.7002 94.2746 85.5952 94.3115 85.5122 94.3804L85.4602 94.2924C85.5624 94.2114 85.6898 94.1689 85.8202 94.1724C85.8675 94.1653 85.9158 94.1692 85.9614 94.1838C86.007 94.1984 86.0486 94.2233 86.083 94.2566C86.1174 94.2898 86.1437 94.3306 86.1598 94.3756C86.176 94.4207 86.1816 94.4688 86.1762 94.5164ZM86.0562 94.7964V94.6524H85.7802C85.6082 94.6524 85.5522 94.7203 85.5522 94.8123C85.5522 94.9043 85.6362 94.9763 85.7762 94.9763C85.8355 94.9805 85.8946 94.9657 85.9449 94.9341C85.9953 94.9025 86.0342 94.8556 86.0562 94.8003V94.7964Z" fill="#263238"/>
<path d="M86.964 95.008C86.9131 95.052 86.8473 95.0749 86.78 95.072C86.7453 95.0757 86.7102 95.0717 86.6773 95.0602C86.6443 95.0486 86.6143 95.03 86.5895 95.0055C86.5646 94.981 86.5455 94.9513 86.5335 94.9186C86.5215 94.8858 86.5169 94.8508 86.52 94.816V94.28H86.364V94.18H86.52V94H86.64V94.192H86.908V94.292H86.64V94.8C86.6369 94.8211 86.6386 94.8425 86.645 94.8628C86.6514 94.8831 86.6623 94.9017 86.677 94.9171C86.6916 94.9325 86.7096 94.9444 86.7295 94.9518C86.7495 94.9593 86.7708 94.9621 86.792 94.96C86.8398 94.9609 86.8864 94.9454 86.924 94.916L86.964 95.008Z" fill="#263238"/>
<path d="M87.9202 94.6601H87.2002C87.2063 94.7464 87.2464 94.8268 87.3116 94.8838C87.3767 94.9407 87.4618 94.9696 87.5482 94.9641C87.5993 94.9662 87.6502 94.9569 87.6973 94.9368C87.7443 94.9168 87.7863 94.8864 87.8202 94.8481L87.8882 94.9281C87.8445 94.9754 87.7912 95.0127 87.7319 95.0376C87.6725 95.0624 87.6085 95.0742 87.5442 95.0721C87.4836 95.0755 87.4229 95.0662 87.3661 95.0448C87.3093 95.0234 87.2576 94.9903 87.2143 94.9478C87.171 94.9052 87.137 94.8541 87.1146 94.7977C87.0922 94.7412 87.0819 94.6808 87.0842 94.6201C87.0809 94.5621 87.0895 94.504 87.1096 94.4495C87.1297 94.395 87.1608 94.3452 87.2009 94.3032C87.241 94.2612 87.2894 94.2279 87.3429 94.2053C87.3965 94.1828 87.4541 94.1715 87.5122 94.1721C87.5713 94.1675 87.6307 94.1761 87.6861 94.1973C87.7415 94.2185 87.7915 94.2517 87.8324 94.2946C87.8734 94.3375 87.9043 94.3889 87.923 94.4452C87.9416 94.5015 87.9475 94.5613 87.9402 94.6201L87.9202 94.6601ZM87.1802 94.5681H87.8082C87.7995 94.4909 87.7626 94.4197 87.7047 94.3679C87.6468 94.3162 87.5718 94.2876 87.4942 94.2876C87.4165 94.2876 87.3416 94.3162 87.2837 94.3679C87.2257 94.4197 87.1889 94.4909 87.1802 94.5681Z" fill="#263238"/>
<path d="M102.616 96.1758V98.0678H102.424V96.3478H101.976V96.1758H102.616Z" fill="#263238"/>
<path d="M104.36 97.8916V98.0676H103.032V97.9276L103.832 97.1596C104.044 96.9476 104.088 96.8196 104.088 96.6916C104.088 96.4716 103.932 96.3356 103.644 96.3356C103.548 96.3294 103.451 96.3453 103.362 96.382C103.272 96.4187 103.192 96.4754 103.128 96.5476L102.988 96.4276C103.074 96.3366 103.178 96.2654 103.294 96.2191C103.411 96.1728 103.535 96.1525 103.66 96.1596C104.06 96.1596 104.288 96.3516 104.288 96.6676C104.282 96.7829 104.251 96.8956 104.197 96.9978C104.143 97.1 104.068 97.1893 103.976 97.2596L103.332 97.8916H104.36Z" fill="#263238"/>
<path d="M105.856 97.5238C105.856 97.8398 105.624 98.0838 105.168 98.0838C104.919 98.0916 104.676 98.0044 104.488 97.8398L104.584 97.6838C104.662 97.7577 104.753 97.8153 104.854 97.8531C104.954 97.8909 105.061 97.9081 105.168 97.9038C105.484 97.9038 105.656 97.7598 105.656 97.5238C105.656 97.2878 105.496 97.1478 105.144 97.1478H105.008V97.0038L105.532 96.3478H104.564V96.1758H105.764V96.3118L105.228 96.9838C105.652 97.0078 105.856 97.2198 105.856 97.5238Z" fill="#263238"/>
<path d="M102.04 94.4755C102.039 94.395 102.054 94.3151 102.085 94.2408C102.116 94.1664 102.161 94.0991 102.219 94.0429C102.277 93.9868 102.345 93.943 102.42 93.9142C102.495 93.8854 102.576 93.8722 102.656 93.8755C102.735 93.8729 102.815 93.8868 102.888 93.9164C102.962 93.946 103.029 93.9907 103.084 94.0475L103.008 94.1275C102.963 94.0818 102.908 94.0458 102.848 94.0218C102.789 93.9977 102.725 93.986 102.66 93.9875C102.593 93.9814 102.525 93.9894 102.46 94.011C102.396 94.0326 102.337 94.0674 102.287 94.1132C102.237 94.1589 102.197 94.2145 102.169 94.2766C102.142 94.3386 102.128 94.4057 102.128 94.4735C102.128 94.5413 102.142 94.6084 102.169 94.6704C102.197 94.7324 102.237 94.7881 102.287 94.8338C102.337 94.8795 102.396 94.9143 102.46 94.936C102.525 94.9576 102.593 94.9656 102.66 94.9595C102.725 94.9619 102.789 94.9507 102.849 94.9266C102.909 94.9024 102.963 94.866 103.008 94.8195L103.084 94.8995C103.029 94.9574 102.961 95.0028 102.887 95.0324C102.812 95.0621 102.732 95.0754 102.652 95.0715C102.572 95.0748 102.492 95.0617 102.418 95.0331C102.343 95.0045 102.275 94.961 102.218 94.9052C102.161 94.8494 102.115 94.7826 102.085 94.7087C102.054 94.6348 102.039 94.5554 102.04 94.4755Z" fill="#263238"/>
<path d="M104.952 93.8877L104.552 95.0637H104.42L104.076 94.0597L103.732 95.0637H103.6L103.2 93.8877H103.328L103.668 94.8997L104.02 93.8877H104.136L104.48 94.9037L104.824 93.8877H104.952Z" fill="#263238"/>
<path d="M92.1241 108.232H91.0681L90.8401 108.74H90.6321L91.4961 106.848H91.6961L92.5601 108.74H92.3481L92.1241 108.232ZM92.0481 108.072L91.6001 107.056L91.1441 108.072H92.0481Z" fill="#263238"/>
<path d="M92.676 108.028C92.6726 107.931 92.6892 107.835 92.7249 107.745C92.7606 107.655 92.8145 107.573 92.8833 107.505C92.9521 107.437 93.0342 107.384 93.1245 107.35C93.2148 107.315 93.3113 107.299 93.408 107.304C93.5175 107.297 93.6269 107.32 93.7246 107.37C93.8224 107.42 93.905 107.495 93.964 107.588L93.824 107.684C93.7791 107.619 93.7194 107.566 93.6498 107.529C93.5802 107.492 93.5027 107.473 93.424 107.472C93.2765 107.472 93.1351 107.53 93.0308 107.635C92.9265 107.739 92.868 107.88 92.868 108.028C92.868 108.175 92.9265 108.317 93.0308 108.421C93.1351 108.525 93.2765 108.584 93.424 108.584C93.5023 108.583 93.5794 108.564 93.649 108.528C93.7185 108.492 93.7785 108.44 93.824 108.376L93.964 108.472C93.9039 108.563 93.821 108.637 93.7234 108.686C93.6258 108.735 93.517 108.758 93.408 108.752C93.3113 108.756 93.2148 108.741 93.1245 108.706C93.0342 108.671 92.9521 108.618 92.8833 108.55C92.8145 108.482 92.7606 108.401 92.7249 108.311C92.6892 108.221 92.6726 108.124 92.676 108.028Z" fill="#263238"/>
<path d="M95.1041 108.652C95.0198 108.721 94.913 108.757 94.8041 108.752C94.7507 108.755 94.6971 108.748 94.6469 108.729C94.5968 108.71 94.5513 108.68 94.5134 108.643C94.4755 108.605 94.4462 108.559 94.4273 108.509C94.4085 108.459 94.4006 108.405 94.4041 108.352V107.48H94.1521V107.316H94.4001V107.004H94.5921V107.316H95.0281V107.48H94.5921V108.328C94.5871 108.362 94.5899 108.397 94.6004 108.43C94.6109 108.463 94.6288 108.493 94.6527 108.518C94.6766 108.543 94.7059 108.563 94.7384 108.575C94.7708 108.587 94.8056 108.591 94.8401 108.588C94.917 108.589 94.9919 108.564 95.0521 108.516L95.1041 108.652Z" fill="#263238"/>
<path d="M95.412 106.868C95.412 106.83 95.4267 106.795 95.453 106.769C95.4792 106.742 95.5149 106.728 95.552 106.728C95.5891 106.728 95.6247 106.742 95.651 106.769C95.6772 106.795 95.692 106.83 95.692 106.868C95.692 106.905 95.6772 106.94 95.651 106.967C95.6247 106.993 95.5891 107.008 95.552 107.008C95.5149 107.008 95.4792 106.993 95.453 106.967C95.4267 106.94 95.412 106.905 95.412 106.868ZM95.456 107.316H95.648V108.74H95.456V107.316Z" fill="#263238"/>
<path d="M96.0361 108.028C96.0361 107.885 96.0784 107.745 96.1578 107.626C96.2372 107.507 96.35 107.414 96.4821 107.359C96.6141 107.304 96.7595 107.29 96.8998 107.317C97.0402 107.345 97.1692 107.414 97.2706 107.514C97.372 107.615 97.4413 107.744 97.4697 107.884C97.498 108.024 97.4843 108.17 97.4301 108.302C97.3759 108.434 97.2837 108.548 97.1652 108.628C97.0467 108.708 96.9071 108.751 96.7641 108.752C96.6679 108.755 96.5721 108.739 96.4825 108.703C96.393 108.668 96.3116 108.615 96.2433 108.547C96.1751 108.479 96.1215 108.398 96.0859 108.309C96.0502 108.22 96.0333 108.124 96.0361 108.028ZM97.2881 108.028C97.2826 107.924 97.2469 107.825 97.1855 107.742C97.1241 107.659 97.0396 107.596 96.9425 107.56C96.8455 107.524 96.7401 107.518 96.6395 107.542C96.5389 107.566 96.4475 107.618 96.3766 107.694C96.3057 107.769 96.2584 107.863 96.2407 107.965C96.2229 108.067 96.2354 108.172 96.2767 108.266C96.318 108.361 96.3861 108.442 96.4728 108.498C96.5594 108.555 96.6607 108.584 96.7641 108.584C96.8358 108.584 96.907 108.57 96.973 108.542C97.039 108.514 97.0985 108.473 97.1477 108.42C97.197 108.368 97.2348 108.306 97.259 108.239C97.2831 108.171 97.293 108.099 97.2881 108.028Z" fill="#263238"/>
<path d="M99.2001 107.916V108.74H99.0081V107.94C99.016 107.88 99.0106 107.82 98.9923 107.763C98.974 107.707 98.9431 107.655 98.9021 107.611C98.8611 107.568 98.8108 107.534 98.7551 107.513C98.6994 107.492 98.6396 107.483 98.5801 107.488C98.5123 107.483 98.4442 107.492 98.3806 107.517C98.317 107.541 98.2595 107.579 98.2122 107.627C98.1649 107.676 98.1289 107.735 98.1067 107.799C98.0846 107.864 98.0769 107.932 98.0841 108V108.748H97.8921V107.324H98.0761V107.6C98.1338 107.51 98.2141 107.437 98.3089 107.389C98.4038 107.34 98.5097 107.318 98.6161 107.324C98.6949 107.318 98.7739 107.33 98.8478 107.358C98.9217 107.386 98.9886 107.429 99.0441 107.485C99.0996 107.542 99.1422 107.609 99.1691 107.683C99.1961 107.758 99.2066 107.837 99.2001 107.916Z" fill="#263238"/>
<path d="M100.656 107.02V107.764H101.632V107.936H100.656V108.736H100.456V106.844H101.752V107.016L100.656 107.02Z" fill="#263238"/>
<path d="M102.056 106.868C102.056 106.83 102.071 106.795 102.097 106.769C102.123 106.742 102.159 106.728 102.196 106.728C102.233 106.728 102.269 106.742 102.295 106.769C102.321 106.795 102.336 106.83 102.336 106.868C102.336 106.905 102.321 106.94 102.295 106.967C102.269 106.993 102.233 107.008 102.196 107.008C102.159 107.008 102.123 106.993 102.097 106.967C102.071 106.94 102.056 106.905 102.056 106.868ZM102.096 107.316H102.288V108.74H102.096V107.316Z" fill="#263238"/>
<path d="M104.14 107.316V108.568C104.155 108.664 104.147 108.763 104.117 108.856C104.087 108.948 104.035 109.033 103.966 109.102C103.897 109.171 103.813 109.222 103.72 109.253C103.627 109.283 103.528 109.291 103.432 109.276C103.192 109.286 102.956 109.21 102.768 109.06L102.864 108.912C103.021 109.042 103.22 109.111 103.424 109.108C103.784 109.108 103.948 108.94 103.948 108.592V108.4C103.888 108.49 103.805 108.562 103.708 108.61C103.612 108.659 103.504 108.681 103.396 108.676C103.301 108.683 103.206 108.671 103.116 108.639C103.026 108.608 102.943 108.558 102.873 108.494C102.803 108.429 102.747 108.35 102.709 108.263C102.671 108.176 102.651 108.081 102.651 107.986C102.651 107.891 102.671 107.796 102.709 107.709C102.747 107.622 102.803 107.543 102.873 107.478C102.943 107.414 103.026 107.364 103.116 107.333C103.206 107.301 103.301 107.289 103.396 107.296C103.506 107.292 103.615 107.315 103.713 107.365C103.811 107.415 103.895 107.489 103.956 107.58V107.308L104.14 107.316ZM103.956 107.992C103.959 107.885 103.93 107.779 103.873 107.688C103.816 107.597 103.732 107.525 103.634 107.482C103.536 107.438 103.427 107.425 103.321 107.444C103.215 107.463 103.117 107.514 103.04 107.588C102.963 107.663 102.91 107.759 102.888 107.865C102.866 107.97 102.875 108.079 102.916 108.179C102.956 108.278 103.025 108.364 103.114 108.424C103.204 108.484 103.309 108.516 103.416 108.516C103.486 108.52 103.556 108.51 103.622 108.486C103.688 108.462 103.748 108.425 103.799 108.376C103.85 108.328 103.89 108.269 103.917 108.205C103.944 108.14 103.957 108.07 103.956 108V107.992Z" fill="#263238"/>
<path d="M105.96 107.316V108.74H105.776V108.48C105.723 108.567 105.647 108.638 105.557 108.686C105.467 108.734 105.366 108.756 105.264 108.752C105.182 108.759 105.1 108.749 105.023 108.72C104.946 108.692 104.876 108.647 104.818 108.588C104.761 108.53 104.717 108.459 104.691 108.381C104.664 108.304 104.655 108.221 104.664 108.14V107.316H104.856V108.116C104.847 108.175 104.852 108.236 104.87 108.293C104.888 108.35 104.919 108.403 104.96 108.447C105.001 108.49 105.052 108.524 105.108 108.546C105.164 108.568 105.224 108.576 105.284 108.572C105.351 108.575 105.418 108.564 105.481 108.538C105.543 108.513 105.599 108.475 105.645 108.426C105.692 108.377 105.726 108.318 105.748 108.254C105.769 108.19 105.776 108.123 105.768 108.056V107.308L105.96 107.316Z" fill="#263238"/>
<path d="M107.2 107.304V107.492H107.152C107.084 107.489 107.016 107.501 106.953 107.527C106.89 107.553 106.834 107.593 106.788 107.643C106.742 107.694 106.708 107.754 106.688 107.819C106.668 107.884 106.663 107.952 106.672 108.02V108.744H106.48V107.32H106.664V107.6C106.714 107.503 106.791 107.423 106.887 107.37C106.982 107.317 107.091 107.294 107.2 107.304Z" fill="#263238"/>
<path d="M108.8 108.088H107.6C107.604 108.157 107.622 108.225 107.652 108.288C107.683 108.35 107.725 108.406 107.777 108.452C107.829 108.498 107.89 108.534 107.956 108.556C108.021 108.579 108.091 108.588 108.16 108.584C108.242 108.586 108.324 108.57 108.399 108.538C108.474 108.505 108.542 108.457 108.596 108.396L108.704 108.52C108.602 108.627 108.471 108.702 108.326 108.734C108.182 108.767 108.031 108.757 107.893 108.704C107.754 108.652 107.635 108.559 107.548 108.439C107.462 108.319 107.413 108.176 107.408 108.028C107.403 107.934 107.418 107.84 107.451 107.752C107.483 107.663 107.534 107.583 107.599 107.515C107.664 107.447 107.743 107.393 107.83 107.357C107.917 107.321 108.01 107.303 108.104 107.304C108.198 107.302 108.291 107.32 108.378 107.356C108.465 107.392 108.543 107.446 108.608 107.514C108.673 107.582 108.722 107.663 108.754 107.752C108.786 107.84 108.799 107.934 108.792 108.028C108.792 108.028 108.8 108.064 108.8 108.088ZM107.6 107.944H108.608C108.608 107.81 108.555 107.682 108.461 107.587C108.366 107.493 108.238 107.44 108.104 107.44C107.971 107.44 107.842 107.493 107.748 107.587C107.653 107.682 107.6 107.81 107.6 107.944Z" fill="#263238"/>
<path d="M74.6761 117.296C75.2761 126.516 71.0041 136.784 71.0041 136.784L47.9281 130.288L43.9041 129.152C47.9041 123.596 49.8081 112.652 48.7641 103.796C48.6841 103.128 48.6361 102.5 48.6001 101.9C48.2001 94.596 51.2361 92.46 53.8001 89.232C56.6001 85.736 62.8321 72.536 62.8321 69.412C62.8321 66.288 70.6521 58.64 68.9121 49.96C68.9121 49.96 71.2761 48.492 73.6521 49.696C74.7321 50.24 75.8081 51.332 76.6761 53.356C78.7121 58.112 75.8521 71.556 73.4201 74.852L68.7361 94.244C68.7361 94.244 70.3161 96.968 71.8681 101.912C73.4108 106.91 74.3534 112.075 74.6761 117.296Z" fill="white"/>
<path opacity="0.4" d="M48.6 101.899C49.908 105.479 51.296 107.899 51.176 112.915C51.056 117.931 48.376 125.651 49.14 129.663C48.7036 129.792 48.2961 130.004 47.94 130.287L43.916 129.151C47.916 123.595 49.82 112.651 48.776 103.795C48.684 103.127 48.636 102.499 48.6 101.899Z" fill="#FFC72C"/>
<path opacity="0.4" d="M73.42 74.8523L68.736 94.2443C68.736 94.2443 70.316 96.9683 71.868 101.912C68.696 96.8003 66 95.2723 66 95.2723C68.112 92.7403 69.74 74.2203 69.74 74.2203C69.74 74.2203 76.36 66.4403 75.74 58.3003C75.541 55.334 74.8348 52.4238 73.652 49.6963C74.732 50.2403 75.808 51.3323 76.676 53.3563C78.712 58.1123 75.852 71.5563 73.42 74.8523Z" fill="#FFC72C"/>
<path d="M43.9041 129.152C47.9041 123.596 49.8081 112.652 48.7681 103.796C47.7281 94.94 51.0241 92.724 53.8041 89.228C56.5841 85.732 62.8321 72.536 62.8321 69.408C62.8321 66.28 70.6481 58.644 68.9121 49.96C68.9121 49.96 73.9001 46.868 76.6761 53.356C78.7121 58.116 75.8521 71.556 73.4201 74.856L68.7401 94.244C68.7401 94.244 73.7361 102.864 74.6761 117.296C75.2761 126.516 71.0041 136.788 71.0041 136.788" stroke="#263238" stroke-linecap="round" stroke-linejoin="round"/>
<path d="M59.3282 144.164C59.3282 144.164 64.5802 147.396 67.6442 152.508" stroke="#263238" stroke-linecap="round" stroke-linejoin="round"/>
<path d="M74.08 150.28C74.08 150.28 69.556 150.924 65.468 146.032C62.848 142.9 54.892 141.484 53.068 133.292" stroke="#263238" stroke-linecap="round" stroke-linejoin="round"/>
<path opacity="0.2" d="M139.832 174.504C128.252 168.964 135.264 164.524 119.332 157.648C103.4 150.772 103.24 144.896 105.16 131.384C107.08 117.872 105.56 103.5 110.192 102.28C114.824 101.06 106.568 82.4239 111.968 75.8359L138.544 127.532L139.832 174.504Z" fill="black" fill-opacity="0.7"/>
<path d="M182.98 173.964C182.436 172.408 181.884 170.708 181.456 169.164C180.904 167.164 180.472 165.564 179.456 163.704C179.296 163.408 179.124 163.096 178.932 162.76C177.848 160.828 176.364 158.184 175.496 154.936C174.912 152.748 175.496 147.36 176.04 142.136C176.44 138.384 176.804 134.844 176.696 132.836L176.664 132.124C176.392 126.872 175.824 115.944 174.664 112.924C173.524 110.012 172.46 109.576 170.52 108.8C170.32 108.712 170.12 108.632 169.888 108.536C169.16 108.232 167.92 107.592 166.492 106.852C163.272 105.184 159.264 103.108 157.228 102.852C155.323 102.638 153.397 102.727 151.52 103.116C149.012 101.192 144.744 98.7164 143.472 98.6644C142.432 98.6124 140.16 99.2644 139.072 99.6044L138.524 99.7804C137.835 99.246 137.105 98.7672 136.34 98.3484C136.288 98.3204 136.236 98.3004 136.192 98.2804C134.78 97.7004 132.648 97.6804 131.484 97.7124C131.132 97.7124 130.856 97.7484 130.732 97.7604C128.536 94.3804 126.376 91.0164 125.436 89.5404C123.476 86.4364 117.408 73.6644 117.348 73.5404C117.341 73.5239 117.33 73.5095 117.316 73.4983C117.302 73.4871 117.286 73.4796 117.268 73.4764C117.249 73.4738 117.23 73.4738 117.212 73.4764C116.74 73.3404 113.264 72.4564 111.868 75.8244C110.34 79.4924 112.52 87.5444 114.648 90.4684C115.672 91.8764 118.468 97.6204 121.304 103.564C120.576 104.24 114.752 109.62 111.924 110.624C109.608 111.444 110.152 123.316 110.588 132.848C110.752 136.368 110.888 139.396 110.848 141.216C110.768 144.736 117.172 149.584 123.38 154.272C128.98 158.52 134.788 162.908 135.468 166.096C135.656 166.992 136.192 167.72 136.832 168.54C137.9 169.9 139.276 171.504 139.86 174.54C140.032 175.452 141.496 176.644 142.66 178.592H184.676C184.324 177.644 183.66 175.916 182.98 173.964ZM124.712 110.724C126.748 114.988 128.008 117.524 128.312 117.808C128.616 118.092 128.596 119.444 128.588 120.76C128.544 121.912 128.584 123.066 128.708 124.212C128.212 124.648 125.08 127.5 124.448 129.812L121.788 126.68L121.116 116.852C121.516 116.428 124.252 113.536 124.712 110.724Z" fill="white"/>
<path opacity="0.4" d="M170.924 138.124C171.912 147.344 171.924 152.344 173.032 155.012C174.904 159.516 177.66 160.428 177.66 160.428C176.744 158.683 176.015 156.844 175.488 154.944C174.908 152.756 175.488 147.368 176.032 142.144C176.432 138.392 176.8 134.848 176.696 132.84L176.66 132.128C176.388 126.88 175.82 115.952 174.66 112.928C173.524 110.016 172.456 109.58 170.516 108.8C170.316 108.716 170.116 108.636 169.884 108.54C169.156 108.236 167.92 107.596 166.488 106.856C163.268 105.188 159.26 103.112 157.224 102.856C155.319 102.64 153.393 102.729 151.516 103.12C149.008 101.196 144.74 98.7204 143.468 98.6684C142.428 98.6164 139.608 99.4364 138.512 99.7844C143.312 103.7 150.224 108.584 150.224 108.584C155.692 109.672 154.992 112.044 157.204 113.384C159.204 114.584 161.116 111.072 162.804 110.764C165.012 110.364 167.52 112.692 167.408 115.516C167.064 123.296 170.076 130.208 170.924 138.124Z" fill="#FFC72C"/>
<path opacity="0.4" d="M143.284 109.552C143.284 109.552 138.952 105.952 136.884 104.752C134.816 103.552 134.484 99.4159 136.116 98.4119C136.178 98.3747 136.248 98.3528 136.32 98.3479L136.172 98.2799C134.76 97.6999 132.628 97.6759 131.464 97.7119C133.864 102.18 135.78 105.608 136.296 106.36C138.036 108.872 143.284 109.552 143.284 109.552Z" fill="#FFC72C"/>
<path opacity="0.4" d="M136.712 165.536C136.896 164.58 135.32 161.78 134.628 160.644C133.056 158.052 114.804 141.924 117.448 137.62C120.092 133.316 122.508 136.5 124.18 136.78C125.38 136.98 128.676 135.016 128.66 134.852C128.284 131.536 131.344 129.38 131.344 129.38C131.344 129.38 131.064 116.18 130.36 116.404C129.656 116.628 121.232 96.584 121.232 96.584C121.232 96.584 112.328 84.744 112.832 79.22C113.336 73.696 117.2 73.6 117.2 73.6V73.452C116.728 73.316 113.252 72.432 111.856 75.8C110.328 79.468 112.508 87.52 114.636 90.444C115.66 91.852 118.456 97.596 121.292 103.54C120.564 104.216 114.74 109.596 111.912 110.6C109.596 111.42 110.14 123.292 110.576 132.824C110.74 136.344 110.876 139.372 110.836 141.192C110.756 144.712 117.16 149.56 123.368 154.248C128.968 158.496 134.776 162.884 135.456 166.072C135.644 166.968 136.18 167.696 136.82 168.516C136.693 167.528 136.657 166.531 136.712 165.536ZM124.712 110.736C126.748 115 128.008 117.536 128.312 117.82C128.616 118.104 128.596 119.456 128.588 120.772C128.544 121.924 128.584 123.078 128.708 124.224C128.212 124.66 125.08 127.512 124.448 129.824L121.788 126.692L121.116 116.864C121.516 116.428 124.252 113.536 124.712 110.724V110.736Z" fill="#FFC72C"/>
<path d="M140.8 109.5C139.012 108.937 137.442 107.837 136.304 106.348C134.476 103.9 127.296 92.7478 125.308 89.6038C123.32 86.4598 117.2 73.5998 117.2 73.5998C117.2 73.5998 113.44 72.3398 111.976 75.8518C110.512 79.3638 112.516 87.2998 114.744 90.3558C116.972 93.4118 127.56 116.944 128.4 117.704C129.24 118.464 127.98 124.744 129.664 126.264" stroke="#263238" stroke-linecap="round" stroke-linejoin="round"/>
<path d="M128.856 124.268C128.856 124.268 124.976 127.648 124.52 130.116L121.64 126.728L120.96 116.8C120.96 116.8 124.436 113.32 124.628 110.224" stroke="#263238" stroke-linecap="round" stroke-linejoin="round"/>
<path d="M121.452 103.552C121.452 103.552 115.008 109.632 111.944 110.716C108.88 111.8 111.116 134.58 110.964 141.176C110.812 147.772 134.144 159.264 135.576 166.016C136.144 168.704 138.496 169.252 139.932 174.416" stroke="#263238" stroke-linecap="round" stroke-linejoin="round"/>
<path d="M130.624 97.8916C130.624 97.8916 134.132 97.5756 136.108 98.3996C138.084 99.2236 146.108 106.116 148.044 107.432C149.98 108.748 152.892 109.248 153.444 110.668" stroke="#263238" stroke-linecap="round" stroke-linejoin="round"/>
<path d="M138.468 99.9238C138.468 99.9238 142.068 98.7238 143.444 98.7918C144.82 98.8598 149.996 101.912 152.316 103.952C154.094 105.529 156.141 106.773 158.36 107.624" stroke="#263238" stroke-linecap="round" stroke-linejoin="round"/>
<path d="M151.472 103.26C153.351 102.856 155.283 102.763 157.192 102.984C160.12 103.384 167.472 107.704 169.816 108.68C172.16 109.656 173.28 109.836 174.512 112.988C175.744 116.14 176.308 128.124 176.556 132.86C176.804 137.596 174.336 151.16 175.356 154.976C176.376 158.792 178.216 161.736 179.332 163.776" stroke="#263238" stroke-linecap="round" stroke-linejoin="round"/>
<path d="M120.96 116.8C120.96 116.8 120.4 114.46 119.6 114.16" stroke="#263238" stroke-linecap="round" stroke-linejoin="round"/>
<path d="M121.64 126.728C121.91 128.091 122.275 129.435 122.732 130.748C123.308 132.168 122.412 134.224 122.412 134.224" stroke="#263238" stroke-linecap="round" stroke-linejoin="round"/>
<path d="M124.52 130.116C124.428 132.388 126.688 135.044 127.236 134.668" stroke="#263238" stroke-linecap="round" stroke-linejoin="round"/>
<path d="M136.028 116.8C136.028 116.8 138.456 112.872 140.784 112.68C143.112 112.488 145.8 115.792 147.236 115.48C148.672 115.168 150.48 113.056 152.896 112.68C155.312 112.304 156.444 113.456 158.36 113.552C160.276 113.648 160.472 111.088 162.76 110.752C165.048 110.416 165.828 111.552 167.364 111.848C168.9 112.144 169.284 110.932 170.528 110.248" stroke="#263238" stroke-linecap="round" stroke-linejoin="round"/>
</svg>
