<svg width="200" height="200" viewBox="0 0 200 200" fill="none" xmlns="http://www.w3.org/2000/svg">
<path opacity="0.7" d="M27.1603 67.1897C27.1603 67.1897 16.0083 95.9897 31.6803 124.99C47.3523 153.99 79.6323 169.31 105.468 182.41C131.304 195.51 158.132 189.13 170.88 167.674C183.628 146.218 166.144 130.902 166.12 100.306C166.096 69.7097 170.7 61.6097 154.12 35.7617C137.54 9.91374 96.8963 4.18974 66.1603 23.3617C35.4243 42.5337 27.1603 67.1897 27.1603 67.1897Z" fill="white"/>
<path d="M52.7881 171.382C62.2281 181.35 85.4041 177.698 95.4441 171.382C128.044 150.882 185.156 116.754 187.744 67.3136C188.844 46.3016 170.312 35.2656 162.572 32.0296C143.988 24.2536 123.588 21.9216 103.448 21.0216C82.4201 20.0816 59.8481 20.8136 40.9241 31.0736C33.7481 34.9576 26.9801 39.9536 22.3481 46.7536C17.6441 53.6656 14.9361 61.8977 14.2161 70.2057C13.0601 83.6057 16.6641 97.0416 22.1161 109.338C27.5681 121.634 34.8361 133.018 41.5081 144.698C45.8641 152.31 44.8521 162.986 52.7881 171.382Z" fill="#FFC72C"/>
<path opacity="0.7" d="M52.7881 171.382C62.2281 181.35 85.4041 177.698 95.4441 171.382C128.044 150.882 185.156 116.754 187.744 67.3136C188.844 46.3016 170.312 35.2656 162.572 32.0296C143.988 24.2536 123.588 21.9216 103.448 21.0216C82.4201 20.0816 59.8481 20.8136 40.9241 31.0736C33.7481 34.9576 26.9801 39.9536 22.3481 46.7536C17.6441 53.6656 14.9361 61.8977 14.2161 70.2057C13.0601 83.6057 16.6641 97.0416 22.1161 109.338C27.5681 121.634 34.8361 133.018 41.5081 144.698C45.8641 152.31 44.8521 162.986 52.7881 171.382Z" fill="white"/>
<path d="M80.4782 53.3933C82.1606 53.2668 83.62 51.7296 83.6588 50.0367C83.7024 48.3439 82.3206 46.7337 80.6479 46.5245C81.4722 45.2743 81.3994 43.4987 80.4734 42.3215C79.5522 41.1443 77.8455 40.653 76.4443 41.1637C76.1049 39.7238 74.9752 38.498 73.574 38.0504C72.168 37.6029 70.5437 37.9434 69.4383 38.9212C67.5765 37.851 64.9874 38.2985 63.5862 39.9233C62.1317 39.933 60.7402 40.9789 60.3232 42.375C59.9062 43.776 60.4977 45.4154 61.705 46.2229" fill="#263238"/>
<path d="M81.0601 53.7729C79.0431 46.4079 71.7219 41.8352 64.2456 43.2654L63.5038 43.4065C55.5766 45.4058 52.8469 53.2767 55.0578 61.167L60.6044 89.8194L76.9292 102.462L81.157 91.9111L79.494 82.3766C79.494 82.3766 86.9703 79.7059 85.5982 71.9567C84.9291 68.2158 82.9413 60.6222 81.0601 53.7729Z" fill="#C17560"/>
<path d="M79.5473 82.3523C79.5473 82.3523 74.6843 83.5879 68.8953 81.3162C68.8953 81.3162 72.231 86.5942 79.7849 84.4295L79.5473 82.3523Z" fill="#7C4236"/>
<path d="M80.3762 61.1863C80.5071 61.7651 80.129 62.3538 79.5277 62.5046C78.9265 62.6505 78.335 62.3051 78.2041 61.7262C78.0732 61.1473 78.4514 60.5587 79.0526 60.4079C79.649 60.262 80.2453 60.6074 80.3762 61.1863Z" fill="#263238"/>
<path d="M80.1243 57.8687C80.0176 58.039 79.0673 57.5769 77.8795 57.8104C76.6964 58.0244 75.9401 58.7979 75.7849 58.6763C75.7073 58.6228 75.7995 58.3357 76.1243 57.9904C76.4443 57.645 77.031 57.2558 77.7679 57.1196C78.5049 56.9834 79.1788 57.1391 79.5861 57.3482C80.0079 57.5574 80.1776 57.7909 80.1243 57.8687Z" fill="#263238"/>
<path d="M69.637 63.4679C69.7679 64.0468 69.3897 64.6354 68.7885 64.7813C68.1921 64.9321 67.5958 64.5819 67.4649 64.003C67.3339 63.4241 67.7121 62.8355 68.3133 62.6847C68.9145 62.5388 69.5061 62.889 69.637 63.4679Z" fill="#263238"/>
<path d="M68.5315 60.3155C68.42 60.4858 67.4697 60.0285 66.2867 60.2571C65.1037 60.4712 64.3473 61.2447 64.1921 61.123C64.1146 61.0695 64.2067 60.7825 64.5315 60.4371C64.8515 60.0917 65.4334 59.7026 66.1752 59.5664C66.9121 59.4302 67.5861 59.5858 67.9933 59.795C68.4152 59.9993 68.5849 60.2377 68.5315 60.3155Z" fill="#263238"/>
<path d="M74.5 68.2984C74.4806 68.2303 75.1933 67.9627 76.3569 67.5833C76.6527 67.4957 76.929 67.379 76.9387 67.1649C76.9678 66.9314 76.7787 66.6298 76.5654 66.3039C76.1436 65.6229 75.6975 64.9126 75.2321 64.1635C73.3654 61.1134 71.9545 58.5838 72.0806 58.506C72.2018 58.433 73.8163 60.8459 75.6781 63.896C76.129 64.65 76.5654 65.3699 76.9775 66.0558C77.1569 66.3769 77.4284 66.732 77.3606 67.2136C77.3218 67.4568 77.1327 67.6611 76.9484 67.7536C76.7642 67.8508 76.5945 67.8849 76.449 67.9238C75.2612 68.2206 74.5145 68.3665 74.5 68.2984Z" fill="#263238"/>
<path d="M68.1244 56.205C68.0274 56.5358 66.951 56.4044 65.6904 56.599C64.4298 56.7693 63.4214 57.2071 63.2468 56.9152C63.1692 56.7741 63.3389 56.4628 63.7462 56.1369C64.1486 55.8109 64.7886 55.4947 65.545 55.3829C66.3013 55.2758 66.9947 55.3926 67.4601 55.592C67.9304 55.7915 68.168 56.0444 68.1244 56.205Z" fill="#263238"/>
<path d="M79.4698 53.6416C79.271 53.9578 78.2431 53.8654 77.065 54.0745C75.8819 54.2497 74.9317 54.668 74.6456 54.4297C74.5195 54.3129 74.6262 54.0113 75.0092 53.6757C75.3874 53.34 76.0662 52.9946 76.8759 52.8633C77.6856 52.7319 78.4322 52.8438 78.8928 53.0384C79.368 53.2378 79.5571 53.4859 79.4698 53.6416Z" fill="#263238"/>
<path d="M57.7194 68.454C57.443 67.2719 56.2406 66.5228 55.077 66.8633C53.6661 67.2768 52.2212 68.4005 52.8855 71.3581C54.0539 76.607 59.0672 74.345 59.043 74.1942C59.0285 74.092 58.2285 70.6479 57.7194 68.454Z" fill="#C17560"/>
<path d="M57.4675 72.4722C57.4384 72.4624 57.3899 72.5549 57.2542 72.6619C57.1184 72.764 56.8711 72.8711 56.5754 72.8273C55.979 72.7494 55.3148 71.9711 55.0772 71.0323C54.956 70.5555 54.956 70.0788 55.0384 69.6653C55.1112 69.247 55.3002 68.921 55.5669 68.8091C55.8287 68.6827 56.0615 68.8043 56.1584 68.9405C56.2602 69.0718 56.2505 69.1837 56.2796 69.1886C56.299 69.1983 56.3718 69.0767 56.2796 68.8675C56.236 68.7702 56.1439 68.6583 55.9984 68.5854C55.8481 68.5124 55.6542 68.4978 55.4651 68.5659C55.0675 68.6827 54.7863 69.1399 54.6942 69.5923C54.5778 70.0545 54.5681 70.5944 54.7039 71.1247C54.9754 72.1754 55.7318 73.0462 56.5415 73.0948C56.9293 73.1094 57.2154 72.9294 57.3463 72.7689C57.4869 72.6035 57.4869 72.477 57.4675 72.4722Z" fill="#7C4236"/>
<path d="M74.6018 43.6203C74.5291 43.4987 74.4418 43.3819 74.3448 43.2798C73.6127 42.5015 72.4927 42.1561 71.4406 42.2826C70.7473 42.0782 70.0733 41.9372 69.4479 41.8593C68.4734 40.7502 66.98 40.0886 65.5012 40.2151C63.8285 40.3562 62.2867 41.4848 61.5982 43.0171C61.3898 43.0901 61.1813 43.1679 60.9728 43.2457C59.7413 42.6669 58.2576 42.6279 57.0067 43.1776C55.6055 43.7906 54.5389 45.1235 54.2383 46.6266C52.8953 46.5342 51.528 47.3077 50.9171 48.5141C50.3062 49.7205 50.4807 51.282 51.3486 52.323C50.505 53.0479 49.8747 54.1424 50.0638 55.2418C50.2383 56.2731 51.3728 57.1049 52.3377 56.7936C52.6334 59.3621 53.4674 62.2905 54.1025 64.8931C54.5486 66.727 57.1037 67.3789 57.5013 68.5999C59.5376 74.8557 60.9534 70.9106 59.237 57.4892C59.3486 57.3627 59.4649 57.2265 59.5764 57.0757C59.8043 56.7741 59.8092 56.4433 59.9982 56.1125C60.2213 55.7185 60.774 55.7234 61.2201 55.6845C62.7813 55.5531 64.1437 54.1667 64.2503 52.6003C64.7497 53.1111 65.6564 52.9116 66.1752 52.4155C66.694 51.9193 66.9558 51.2236 67.3146 50.601C67.6782 49.9832 68.2358 49.38 68.9485 49.3508C69.3461 49.3313 69.7582 49.4967 70.1412 49.3848C70.82 49.1902 71.0042 48.3146 70.98 47.6044C70.9558 47.0061 70.9073 46.3347 71.1982 45.8483C71.5861 45.571 71.9933 45.3375 72.4636 45.211C72.7303 45.1916 73.0067 45.1916 73.2685 45.1818C73.3897 45.177 73.5157 45.1575 73.6418 45.1332C73.8067 45.1527 73.9764 45.1867 74.1557 45.2353C76.6963 45.9213 79.6442 50.3723 79.6442 50.3723C79.2321 47.2736 77.0842 45.0359 74.6018 43.6203Z" fill="#263238"/>
<path d="M50.7136 52.7269C50.7087 52.7269 50.7233 52.6977 50.7475 52.6393C50.7766 52.5858 50.8105 52.5031 50.8784 52.4009C51.0093 52.2015 51.2275 51.9193 51.5863 51.6469C51.9451 51.3794 52.4493 51.1118 53.0796 51.0145C53.7051 50.9075 54.4711 50.9659 55.1742 51.3745L55.0384 51.4475C55.0772 50.3675 55.6881 49.1952 56.716 48.3877C57.2251 47.979 57.8311 47.6482 58.4954 47.4488C59.1644 47.2494 59.8772 47.1715 60.6044 47.2007C62.0153 47.2591 63.3196 47.692 64.4444 48.1882L64.299 48.266C64.5511 46.9769 65.3268 45.9359 66.1996 45.3133C67.082 44.676 68.0614 44.4717 68.8371 44.4717C69.6274 44.4717 70.2335 44.6614 70.6262 44.8268C70.8201 44.9095 70.9656 44.9873 71.0626 45.0457C71.1595 45.1041 71.2032 45.1333 71.2032 45.1381C71.1935 45.1527 70.9947 45.036 70.602 44.89C70.2092 44.749 69.608 44.5836 68.842 44.603C68.0856 44.6225 67.145 44.8414 66.3062 45.4592C65.4723 46.0673 64.7402 47.0742 64.5074 48.305L64.4832 48.4363L64.362 48.3828C63.2517 47.9012 61.9668 47.478 60.5947 47.4196C59.8917 47.3953 59.1984 47.4634 58.5584 47.658C57.9184 47.8477 57.3366 48.1639 56.8469 48.5531C55.8578 49.3265 55.2711 50.4308 55.2178 51.4572L55.2081 51.6031L55.082 51.5253C54.4323 51.1361 53.7002 51.0632 53.099 51.1556C52.4881 51.2383 51.9984 51.4815 51.6396 51.7296C50.9269 52.2453 50.7475 52.7512 50.7136 52.7269Z" fill="#455A64"/>
<path d="M71.1885 45.498C71.1934 45.5029 71.174 45.5759 71.1352 45.7218C71.1061 45.8678 71.0673 46.0867 71.0528 46.3688C71.0334 46.6558 71.0334 47.0061 71.0188 47.4196C70.9946 47.8282 70.9994 48.3195 70.7473 48.8205C70.6164 49.0638 70.374 49.2778 70.0831 49.3557C69.7922 49.4481 69.4819 49.4481 69.1764 49.4675C68.871 49.487 68.5558 49.5308 68.294 49.7059C68.0322 49.881 67.8237 50.1534 67.6395 50.4502C67.4552 50.7469 67.2904 51.0728 67.111 51.3988C66.9364 51.7198 66.7861 52.0993 66.4807 52.3911C66.1849 52.683 65.8067 52.8825 65.3995 52.9992C65.1958 53.0576 64.9776 53.0916 64.7546 53.077C64.5316 53.0673 64.2892 52.9846 64.1195 52.7998L64.3086 52.7317C64.2892 53.0527 64.2407 53.3787 64.1243 53.69C64.008 54.0013 63.8383 54.2932 63.6249 54.5607C63.1886 55.0813 62.5922 55.4753 61.928 55.6893C61.6565 55.7866 61.3704 55.8401 61.0892 55.879C60.7934 55.9082 60.5413 55.8985 60.3231 56.025C60.1001 56.1466 59.9546 56.3314 59.8431 56.5795C59.7171 56.8276 59.5765 57.0563 59.4165 57.28C58.7959 58.1508 57.9425 58.8708 56.9486 59.0702C55.9547 59.2356 55.0044 58.9389 54.2771 58.4767C53.545 58.0097 53.0262 57.353 52.745 56.6866L52.8468 56.7255C52.202 56.9979 51.528 56.8957 51.0577 56.6428C50.5729 56.385 50.2965 55.9763 50.1559 55.6309C50.0105 55.2807 49.9959 54.984 50.0008 54.7894C50.0056 54.6921 50.0153 54.6191 50.025 54.5705C50.0347 54.5218 50.0395 54.4975 50.0444 54.4975C50.0783 54.4926 49.9377 54.9207 50.2286 55.5969C50.3741 55.9228 50.6505 56.3023 51.1111 56.5358C51.562 56.7644 52.1971 56.8471 52.7838 56.5893L52.8517 56.5601L52.8807 56.6282C53.1571 57.2606 53.6662 57.8832 54.3692 58.3259C55.0674 58.7589 55.9886 59.0313 56.905 58.8708C57.8213 58.681 58.6407 57.9951 59.2371 57.1536C59.3874 56.9395 59.5231 56.7157 59.6443 56.4822C59.751 56.239 59.9449 55.9666 60.2165 55.8304C60.3474 55.7574 60.4977 55.7136 60.6431 55.6942L61.0552 55.6601C61.3219 55.6212 61.5934 55.5726 61.8504 55.4801C62.4807 55.2758 63.0431 54.9061 63.4504 54.4197C63.6492 54.1716 63.8043 53.8992 63.9158 53.6122C64.0225 53.3251 64.071 53.0235 64.0855 52.7219L64.1001 52.469L64.2698 52.6538C64.517 52.9214 64.9728 52.8922 65.3364 52.79C65.7146 52.683 66.0637 52.4982 66.3304 52.2403C66.6019 51.9825 66.7473 51.6323 66.9316 51.2966C67.1158 50.9707 67.2807 50.6448 67.4795 50.3383C67.6734 50.0367 67.8916 49.7448 68.1922 49.5502C68.4976 49.3557 68.8467 49.3167 69.157 49.2973C69.4722 49.2778 69.7679 49.2827 70.0297 49.2048C70.2964 49.1367 70.5 48.9568 70.6213 48.7427C70.8588 48.3 70.8685 47.8087 70.9025 47.405C70.9267 46.9963 70.9364 46.6412 70.9703 46.3542C70.9994 46.0672 71.0479 45.8483 71.0916 45.7024C71.1497 45.5662 71.1837 45.498 71.1885 45.498Z" fill="#455A64"/>
<path d="M71.2032 71.0811C70.985 72.5258 71.6105 73.9414 72.9777 74.4376C73.4529 74.6127 74.0104 74.5738 74.4614 74.35C75.0141 74.0776 75.4989 73.6739 75.6298 73.0269C75.751 72.4188 75.8335 71.7961 75.6638 71.2027C74.408 71.1297 72.4589 71.154 71.2032 71.0811Z" fill="#7C4236"/>
<path d="M75.3823 73.6154C75.3872 73.6203 75.3727 73.6543 75.329 73.7176C75.2902 73.7808 75.2223 73.8684 75.1157 73.9705C74.9169 74.1748 74.5484 74.4229 74.0296 74.5105C73.5205 74.5883 72.866 74.5251 72.2648 74.1505C71.6781 73.7759 71.2078 73.0949 71.0769 72.2971C71.0478 72.0977 71.0381 71.8982 71.0478 71.7036C71.0672 71.5139 71.0769 71.3096 71.203 71.115C71.2612 71.0177 71.363 70.935 71.4745 70.901C71.5812 70.8669 71.683 70.8621 71.7751 70.8621C71.9496 70.8669 72.1193 70.8718 72.289 70.8767C72.9581 70.9107 73.5496 70.9739 74.049 71.0275C75.043 71.1345 75.6636 71.1637 75.6636 71.2026C75.6636 71.2366 75.0381 71.2707 74.0345 71.2074C73.5351 71.1783 72.9387 71.1296 72.2793 71.1102C72.1145 71.1102 71.9448 71.1053 71.7751 71.1053C71.6054 71.1053 71.4842 71.1345 71.4115 71.2512C71.3339 71.368 71.3145 71.548 71.2999 71.7231C71.2902 71.8982 71.2999 72.0831 71.329 72.2631C71.4454 72.9879 71.8672 73.6105 72.3908 73.9608C72.9193 74.3062 73.5302 74.3889 74.0005 74.3354C74.4805 74.277 74.8345 74.0727 75.0478 73.8975C75.266 73.7322 75.3581 73.6008 75.3823 73.6154Z" fill="#263238"/>
<path d="M104.657 56.8276C104.657 56.8276 110.8 56.059 120.037 48.6941C129.273 41.3242 134.267 30.8508 135.299 31.0016C136.332 31.1524 141.055 29.4741 147.896 49.0735C154.737 68.6729 150.941 72.7153 149.229 72.5159C147.518 72.3164 136.196 67.9675 128.851 68.1086C121.51 68.2496 111.814 71.1684 111.814 71.1684L104.657 56.8276Z" fill="#FF725E"/>
<path d="M93.6077 71.465L96.8901 70.7645L95.1156 66.4302L92.3423 67.8166L93.6077 71.465Z" fill="#455A64"/>
<path d="M93.9955 66.3135L95.2076 69.9717L95.964 71.8105C96.9967 74.3352 99.8233 75.6049 102.393 74.7L115.712 70.9446L109.991 54.0208L96.7543 59.6199C94.1555 60.7095 92.924 63.7012 93.9955 66.3135Z" fill="#263238"/>
<path d="M98.7666 71.9322L103.227 79.8712L105.264 79.2096L119.188 89.6393L122.645 82.0895C122.645 82.0895 114.543 78.981 112.953 76.1936C111.363 73.4062 113.036 72.6911 113.036 72.6911L109.113 68.5757L98.7666 71.9322Z" fill="#263238"/>
<path d="M147.169 49.3508C150.795 59.9604 151.847 69.2079 149.525 70.0057C147.203 70.8035 142.378 62.8499 138.757 52.2452C135.13 41.6355 134.078 32.388 136.4 31.5902C138.723 30.7876 143.547 38.7411 147.169 49.3508Z" fill="#263238"/>
<path d="M138.044 46.2035C138.044 46.2035 143.581 43.4453 145.777 50.8054C147.974 58.1655 142.359 58.8125 142.359 58.8125C140.434 55.0911 138.985 50.9027 138.044 46.2035Z" fill="#FAFAFA"/>
<path d="M133.278 37.2283C133.249 37.2283 133.278 37.7196 133.355 38.6001C133.438 39.4806 133.554 40.76 133.743 42.3361C133.894 43.1193 134.059 43.9706 134.233 44.8851C134.32 45.3424 134.412 45.8191 134.509 46.3056C134.558 46.5488 134.606 46.7969 134.655 47.0498C134.708 47.2979 134.791 47.546 134.859 47.799C135.145 48.8108 135.44 49.8713 135.751 50.9707C135.828 51.248 135.906 51.5204 135.988 51.8025C136.066 52.0847 136.182 52.3522 136.279 52.6295C136.488 53.1841 136.696 53.7435 136.905 54.3126C137.118 54.8818 137.326 55.4412 137.535 55.9958C137.642 56.2682 137.729 56.5504 137.855 56.813C137.976 57.0757 138.102 57.3384 138.223 57.5962C138.708 58.6275 139.178 59.6248 139.625 60.5782C139.741 60.8117 139.843 61.0549 139.964 61.2787C140.09 61.5025 140.216 61.7214 140.342 61.9354C140.589 62.3684 140.832 62.7867 141.065 63.1905C141.53 63.998 141.966 64.7472 142.364 65.4379C143.251 66.7465 143.998 67.7875 144.512 68.5075C145.031 69.2274 145.326 69.6117 145.355 69.5971C145.38 69.5777 145.132 69.1593 144.657 68.4102C144.168 67.6464 143.474 66.5762 142.631 65.2628C142.248 64.572 141.835 63.8132 141.385 63.0056C141.162 62.6019 140.929 62.1835 140.686 61.7506C140.565 61.5365 140.444 61.3176 140.323 61.0939C140.206 60.8701 140.105 60.6317 139.993 60.3934C139.557 59.4448 139.101 58.4524 138.626 57.4211C138.505 57.1633 138.388 56.9055 138.267 56.6428C138.141 56.3801 138.058 56.1028 137.952 55.8304C137.748 55.2807 137.54 54.7261 137.331 54.1618C137.123 53.5976 136.914 53.043 136.706 52.4933C136.609 52.216 136.488 51.9485 136.41 51.6712C136.328 51.3939 136.25 51.1215 136.172 50.8491C135.857 49.7594 135.552 48.7087 135.261 47.7066C135.193 47.4536 135.111 47.2104 135.052 46.9623C134.999 46.7142 134.951 46.471 134.897 46.2277C134.795 45.7461 134.699 45.2743 134.602 44.8219C134.408 43.9171 134.228 43.0706 134.063 42.2972C133.84 40.7502 133.661 39.4903 133.535 38.5952C133.394 37.7099 133.307 37.2283 133.278 37.2283Z" fill="#263238"/>
<path d="M115.712 70.9445C115.717 70.9639 115.503 71.0272 115.111 71.1342C114.669 71.2509 114.117 71.3969 113.457 71.5671C112.061 71.9271 110.136 72.4379 108.017 73.0265C105.899 73.6151 103.974 74.1502 102.573 74.5005C101.874 74.6756 101.302 74.8069 100.91 74.8896C100.512 74.9723 100.294 75.0064 100.289 74.9918C100.284 74.9772 100.497 74.9042 100.885 74.7924C101.322 74.6707 101.874 74.5102 102.529 74.3254C103.969 73.9167 105.86 73.3768 107.949 72.7833C110.073 72.1947 112.008 71.7131 113.414 71.392C114.117 71.2315 114.689 71.1099 115.086 71.0369C115.484 70.9639 115.707 70.9299 115.712 70.9445Z" fill="#455A64"/>
<path d="M107.882 68.1815C107.891 68.2156 107.397 68.4296 106.582 68.7361C105.763 69.0426 104.623 69.4366 103.348 69.816C102.073 70.2003 100.905 70.4971 100.051 70.6917C99.198 70.8862 98.6695 70.9738 98.6598 70.9446C98.6501 70.9106 99.1689 70.7549 100.008 70.5214C100.846 70.283 102.005 69.9571 103.276 69.5777C104.546 69.1982 105.695 68.8334 106.524 68.5707C107.353 68.308 107.867 68.1475 107.882 68.1815Z" fill="#455A64"/>
<path d="M105.768 64.3191C105.787 64.3872 103.949 65.005 101.661 65.6958C99.3725 66.3914 97.501 66.8973 97.4767 66.8292C97.4573 66.7611 99.2949 66.1433 101.583 65.4525C103.872 64.7618 105.743 64.251 105.768 64.3191Z" fill="#455A64"/>
<path d="M103.702 60.5929C103.731 60.6561 102.165 61.4053 100.202 62.2663C98.2429 63.1273 96.6284 63.7743 96.5993 63.7111C96.5702 63.6478 98.1362 62.8987 100.1 62.0377C102.059 61.1766 103.673 60.5297 103.702 60.5929Z" fill="#455A64"/>
<path d="M88.7157 102.462L80.6237 88.7734L59.7123 87.9075L59.7365 89.8144C59.7365 89.8144 53.9911 95.6081 52.1438 103.508C50.7426 109.487 56.6383 132.302 58.2965 140.211C60.3377 149.936 63.1644 162.243 63.1644 162.243C62.7425 164.422 59.9547 166.188 60.1486 169.097L106.626 168.586L104.236 159.135L88.7157 102.462Z" fill="#FF725E"/>
<path d="M104.837 162.749C104.837 162.817 95.5861 162.875 84.1825 162.875C72.7741 162.875 63.5281 162.817 63.5281 162.749C63.5281 162.681 72.7741 162.622 84.1825 162.622C95.5909 162.622 104.837 162.681 104.837 162.749Z" fill="white"/>
<path d="M101.627 151.05C101.627 151.118 92.4636 151.176 81.1618 151.176C69.8552 151.176 60.6917 151.118 60.6917 151.05C60.6917 150.981 69.8552 150.923 81.1618 150.923C92.4636 150.923 101.627 150.981 101.627 151.05Z" fill="white"/>
<path d="M98.4708 138.334C98.4708 138.402 89.5011 138.46 78.4418 138.46C67.3776 138.46 58.408 138.402 58.408 138.334C58.408 138.265 67.3776 138.207 78.4418 138.207C89.5011 138.207 98.4708 138.261 98.4708 138.334Z" fill="white"/>
<path d="M96.2696 125.535C96.2696 125.603 87.0333 125.661 75.6394 125.661C64.2407 125.661 55.0044 125.603 55.0044 125.535C55.0044 125.467 64.2407 125.408 75.6394 125.408C87.0285 125.408 96.2696 125.462 96.2696 125.535Z" fill="white"/>
<path d="M91.3871 109.652C91.3871 109.72 82.6454 109.779 71.8624 109.779C61.0794 109.779 52.3376 109.72 52.3376 109.652C52.3376 109.584 61.0794 109.526 71.8624 109.526C82.6454 109.526 91.3871 109.584 91.3871 109.652Z" fill="white"/>
<path d="M84.7302 95.1118C84.7302 95.1799 78.272 95.2383 70.3109 95.2383C62.3449 95.2383 55.8867 95.1799 55.8867 95.1118C55.8867 95.0437 62.3449 94.9854 70.3109 94.9854C78.272 94.9854 84.7302 95.0389 84.7302 95.1118Z" fill="white"/>
<path opacity="0.3" d="M58.0686 110.902C58.0686 110.902 61.0262 116.141 65.6952 120.028C70.3643 123.915 84.5751 130.896 84.5751 130.896L85.7582 128.434L96.3569 130.915L94.3933 124.372L58.0686 110.902Z" fill="black"/>
<path d="M107.93 93.6332L104.236 113.792L72.5461 98.6777L67.4407 116.609C79.8964 122.718 105.108 132.895 108.357 132.598C112.973 132.18 116.158 129.417 117.598 122.631C118.485 118.433 118.068 90.2815 118.068 90.2815L107.93 93.6332Z" fill="#C17560"/>
<path d="M74.6172 95.9683C74.6172 95.9683 62.7627 88.6228 57.5943 97.8801C53.8997 106.909 57.987 114.118 67.1118 118.598C71.5093 120.758 77.502 123.424 83.5578 125.954L92.3771 106.32L74.6172 95.9683Z" fill="#FF725E"/>
<path d="M74.6164 95.9681C74.6164 95.9681 74.7279 96.0216 74.9413 96.1432C75.1643 96.2697 75.4746 96.4448 75.8819 96.6735C76.7109 97.1502 77.9182 97.841 79.46 98.7263C82.5582 100.521 87.0042 103.095 92.4248 106.232L92.5024 106.276L92.4636 106.359C89.9521 111.968 86.946 118.686 83.6685 126.002L83.62 126.114L83.5085 126.065C80.4055 124.766 77.2055 123.39 73.9522 121.93C72.5122 121.283 71.0867 120.631 69.6904 119.975C68.294 119.318 66.9171 118.656 65.5886 117.937C64.934 117.562 64.294 117.173 63.6734 116.764C63.0722 116.326 62.4516 115.927 61.9037 115.441C60.7547 114.536 59.7704 113.466 58.9026 112.362C58.6989 112.075 58.5001 111.783 58.3013 111.501C58.088 111.223 57.9523 110.897 57.7729 110.601C57.4092 110.012 57.1813 109.36 56.9147 108.742C56.7983 108.426 56.7207 108.1 56.6189 107.779L56.4783 107.303C56.4395 107.142 56.4201 106.977 56.3862 106.816C56.328 106.49 56.2747 106.169 56.2214 105.848C56.1923 105.527 56.1826 105.201 56.1583 104.88C56.0904 104.238 56.1729 103.61 56.1971 102.988C56.2456 102.37 56.3765 101.767 56.4638 101.173C56.6189 100.589 56.7595 100.015 56.9195 99.456C57.1183 98.9112 57.3123 98.3712 57.5013 97.8458V97.841L57.5062 97.8361C58.2383 96.5324 59.2032 95.433 60.3086 94.6498C61.4238 93.8715 62.6601 93.4483 63.8334 93.2585C66.2043 92.918 68.2698 93.3753 69.8649 93.8471C71.4698 94.3385 72.6528 94.8979 73.4431 95.3016C73.8358 95.506 74.1316 95.6714 74.3255 95.7881C74.5243 95.9 74.6164 95.9681 74.6164 95.9681C74.6164 95.9681 74.5097 95.9146 74.311 95.8076C74.1122 95.7005 73.8116 95.5449 73.414 95.3503C72.6188 94.966 71.431 94.426 69.831 93.9493C68.2407 93.492 66.1898 93.0591 63.8577 93.4093C62.7037 93.6039 61.4965 94.0271 60.4104 94.7909C59.3341 95.5595 58.3935 96.6394 57.6759 97.9237L57.6807 97.9139C57.4916 98.4344 57.3026 98.9695 57.1086 99.5095C56.9535 100.064 56.8129 100.633 56.6626 101.207C56.5801 101.796 56.4541 102.389 56.4056 102.997C56.391 103.61 56.3038 104.233 56.3765 104.861C56.3959 105.177 56.4104 105.493 56.4395 105.809C56.4929 106.125 56.551 106.442 56.6044 106.758C56.6335 106.918 56.6529 107.079 56.6917 107.234L56.8323 107.706C56.9292 108.018 57.0068 108.339 57.1232 108.65C57.3898 109.258 57.6129 109.895 57.9716 110.474C58.1462 110.766 58.2819 111.082 58.4904 111.355C58.6892 111.637 58.888 111.919 59.0868 112.201C59.945 113.291 60.9147 114.342 62.0541 115.237C62.5971 115.718 63.2128 116.112 63.8092 116.545C64.4249 116.949 65.0601 117.333 65.7049 117.708C67.0189 118.423 68.3958 119.08 69.7922 119.736C71.1885 120.393 72.6091 121.045 74.0491 121.692C77.3025 123.151 80.4976 124.533 83.5958 125.832L83.4358 125.895C86.7279 118.583 89.7533 111.875 92.2745 106.271L92.3278 106.403C86.9266 103.236 82.4952 100.633 79.4067 98.8236C77.8746 97.9188 76.677 97.2086 75.8576 96.7221C75.46 96.4837 75.1497 96.2989 74.9316 96.1675C74.7182 96.0411 74.6164 95.9681 74.6164 95.9681Z" fill="#263238"/>
<path d="M107.46 97.0869L108.173 89.576C108.173 89.576 105.312 83.7969 105.365 83.218C105.419 82.6391 105.589 79.4528 105.589 79.4528L112.74 72.9927C112.74 72.9927 115.058 72.9927 115.116 75.2936C115.116 75.2936 117.346 74.8218 117.375 77.5021C117.375 77.5021 119.79 77.5897 119.853 79.5501C119.853 79.5501 121.307 79.3555 121.254 81.4035C121.215 82.8726 120.575 88.5107 120.575 88.5107L117.584 93.7303L117.336 98.95L107.46 97.0869Z" fill="#C17560"/>
<path d="M108.197 121.157C108.114 121.186 107.586 119.362 106.505 117.314C105.423 115.266 104.168 113.84 104.236 113.787C104.26 113.767 104.599 114.098 105.084 114.692C105.569 115.285 106.18 116.156 106.733 117.192C107.28 118.228 107.663 119.221 107.901 119.95C108.129 120.685 108.231 121.147 108.197 121.157Z" fill="#7C4236"/>
<path d="M67.4358 93.4725C67.4504 93.4822 67.3389 93.7255 67.1207 94.1535C66.9025 94.5865 66.5777 95.2043 66.1704 95.9631C65.351 97.4858 64.1874 99.5678 62.8783 101.854C61.5789 104.121 60.4007 106.169 59.5231 107.706C59.111 108.426 58.7668 109.02 58.5001 109.477C58.2577 109.895 58.1122 110.119 58.0977 110.114C58.0832 110.104 58.1947 109.861 58.4128 109.433C58.631 109 58.9559 108.382 59.3631 107.624C60.1825 106.101 61.3462 104.019 62.6552 101.733C63.9546 99.4656 65.128 97.4177 66.0104 95.8805C66.4225 95.1605 66.7667 94.567 67.0334 94.1097C67.2807 93.6914 67.4213 93.4676 67.4358 93.4725Z" fill="white"/>
<path d="M77.0987 97.7192C77.1084 97.7241 77.0793 97.7971 77.0212 97.9381C76.9484 98.1035 76.8612 98.303 76.7545 98.5462C76.5169 99.0716 76.1678 99.8256 75.7218 100.755C74.8297 102.613 73.5497 105.157 72.0612 107.925C70.5679 110.693 69.1473 113.159 68.0854 114.925C67.557 115.811 67.1206 116.516 66.8103 117.002C66.6649 117.221 66.5485 117.406 66.4467 117.557C66.3594 117.683 66.3158 117.747 66.3061 117.742C66.2964 117.737 66.3303 117.664 66.403 117.533C66.4903 117.372 66.597 117.182 66.723 116.954C67.0285 116.419 67.4358 115.704 67.9303 114.838C68.9533 113.048 70.3497 110.571 71.8382 107.808C73.3266 105.045 74.6309 102.516 75.5618 100.682C76.0127 99.7916 76.3909 99.057 76.6672 98.5073C76.7884 98.2738 76.8902 98.0792 76.9775 97.9187C77.0502 97.7825 77.0939 97.7144 77.0987 97.7192Z" fill="white"/>
<path d="M87.9109 103.79C87.9255 103.795 87.8236 104.082 87.62 104.593C87.4212 105.104 87.1109 105.838 86.7085 106.738C85.9133 108.538 84.7255 110.99 83.2709 113.612C81.8116 116.239 80.3522 118.535 79.2467 120.164C78.694 120.977 78.2334 121.628 77.9085 122.071C77.5837 122.514 77.3946 122.752 77.3801 122.742C77.3655 122.733 77.5255 122.475 77.8261 122.013C78.151 121.517 78.5776 120.86 79.0964 120.067C80.1631 118.418 81.5885 116.112 83.0479 113.49C84.5024 110.873 85.7049 108.441 86.5437 106.66C86.9461 105.799 87.2758 105.089 87.5279 104.549C87.7606 104.058 87.8964 103.785 87.9109 103.79Z" fill="white"/>
</svg>
