<svg width="24" height="24" viewBox="0 0 24 24" fill="none" xmlns="http://www.w3.org/2000/svg">
<path fill-rule="evenodd" clip-rule="evenodd" d="M16.3345 2.00024H7.66549C4.26791 2.00024 2.00049 4.43284 2.00049 7.91624V16.0842C2.00049 19.5709 4.26186 22.0002 7.66549 22.0002H16.3335C19.7381 22.0002 22.0005 19.5709 22.0005 16.0842V7.91624C22.0005 4.42975 19.7383 2.00024 16.3345 2.00024ZM7.66549 3.50024H16.3345C18.885 3.50024 20.5005 5.23521 20.5005 7.91624V16.0842C20.5005 18.7654 18.8849 20.5002 16.3335 20.5002H7.66549C5.11525 20.5002 3.50049 18.7656 3.50049 16.0842V7.91624C3.50049 5.23862 5.12083 3.50024 7.66549 3.50024ZM16.0903 9.09691C15.7974 8.80402 15.3226 8.80402 15.0297 9.09691L10.8131 13.312L8.97021 11.4698L8.88607 11.3972C8.59242 11.1794 8.17576 11.2037 7.90955 11.47C7.61671 11.763 7.61682 12.2379 7.90977 12.5307L10.2838 14.9037L10.3679 14.9763C10.6615 15.194 11.0781 15.1698 11.3443 14.9036L16.0903 10.1576L16.1629 10.0735C16.3808 9.77984 16.3566 9.36318 16.0903 9.09691Z" fill="#FFC72C"/>
</svg>
