<svg width="24" height="24" viewBox="0 0 24 24" fill="none" xmlns="http://www.w3.org/2000/svg">
<path fill-rule="evenodd" clip-rule="evenodd" d="M7.66549 2.00024H16.3345C19.7383 2.00024 22.0005 4.42975 22.0005 7.91624V16.0842C22.0005 19.5709 19.7381 22.0002 16.3335 22.0002H7.66549C4.26186 22.0002 2.00049 19.5709 2.00049 16.0842V7.91624C2.00049 4.43284 4.26791 2.00024 7.66549 2.00024ZM16.3345 3.50024H7.66549C5.12083 3.50024 3.50049 5.23862 3.50049 7.91624V16.0842C3.50049 18.7656 5.11525 20.5002 7.66549 20.5002H16.3335C18.8849 20.5002 20.5005 18.7654 20.5005 16.0842V7.91624C20.5005 5.23521 18.885 3.50024 16.3345 3.50024Z" fill="#A0A4A8"/>
</svg>
